<?xml version="1.0" standalone="no"?>
<!DOCTYPE svg PUBLIC "-//W3C//DTD SVG 20010904//EN"
 "http://www.w3.org/TR/2001/REC-SVG-20010904/DTD/svg10.dtd">
<svg version="1.0" xmlns="http://www.w3.org/2000/svg"
 width="3072.000000pt" height="3072.000000pt" viewBox="0 0 3072.000000 3072.000000"
 preserveAspectRatio="xMidYMid meet">

<g transform="translate(0.000000,3072.000000) scale(0.100000,-0.100000)"
fill="#000000" stroke="none">
<path d="M0 25845 c0 -4861 0 -4874 20 -4885 12 -6 20 -7 20 -1 0 5 -6 12 -13
14 -7 4 -6 6 4 6 9 1 19 -9 22 -20 5 -19 2 -21 -24 -15 l-29 6 0 -10475 0
-10475 15360 0 15360 0 0 6084 c0 4858 -3 6085 -12 6089 -10 4 -10 6 0 6 9 1
12 1862 12 9271 l0 9270 -15360 0 -15360 0 0 -4875z m95 -4885 c13 -6 15 -9 5
-9 -8 0 -22 4 -30 9 -18 12 -2 12 25 0z m20 -30 c3 -5 1 -10 -4 -10 -6 0 -11
5 -11 10 0 6 2 10 4 10 3 0 8 -4 11 -10z m205 -40 c18 -12 2 -12 -25 0 -13 6
-15 9 -5 9 8 0 22 -4 30 -9z m96 -58 c-4 -3 -12 0 -19 8 -9 10 -9 11 1 6 7 -5
12 -1 13 11 1 17 2 17 6 0 3 -10 2 -21 -1 -25z m-36 16 c0 -11 -12 -10 -30 2
-12 7 -10 9 8 7 12 0 22 -5 22 -9z m80 -32 c0 -3 -7 -3 -15 0 -8 4 -15 13 -15
21 0 12 2 12 15 -1 8 -8 15 -17 15 -20z m54 -8 c7 -5 4 -8 -6 -8 -12 0 -18 7
-17 23 0 15 2 17 6 7 3 -8 11 -18 17 -22z m196 -48 c0 -11 -4 -20 -9 -20 -5 0
-7 9 -4 20 3 11 7 20 9 20 2 0 4 -9 4 -20z m81 -30 c10 0 19 -4 19 -9 0 -5 -8
-8 -17 -6 -10 2 -21 4 -25 4 -5 1 -7 11 -7 24 1 16 2 18 6 5 2 -10 13 -18 24
-18z m-56 10 c3 -5 1 -10 -4 -10 -6 0 -11 5 -11 10 0 6 2 10 4 10 3 0 8 -4 11
-10z m106 -19 c7 11 9 11 9 -3 0 -10 -7 -18 -15 -18 -9 0 -15 9 -14 23 1 19 2
19 6 3 4 -15 7 -16 14 -5z m64 -31 c2 -4 -7 -5 -20 -2 -14 2 -25 8 -25 12 0
10 38 1 45 -10z m70 0 c3 -5 1 -10 -5 -10 -6 0 -9 -4 -6 -9 3 -4 -6 -6 -19 -3
-14 2 -25 8 -25 12 0 5 10 6 23 3 18 -4 19 -3 7 6 -13 9 -13 11 2 11 9 0 20
-4 23 -10z m179 -72 c7 -5 4 -8 -6 -8 -12 0 -18 7 -17 23 0 15 2 17 6 7 3 -8
11 -18 17 -22z m23 -10 c-3 -7 -5 -2 -5 12 0 14 2 19 5 13 2 -7 2 -19 0 -25z
m58 4 c-3 -3 -11 0 -18 7 -9 10 -8 11 6 5 10 -3 15 -9 12 -12z m10 -25 c7 -7
4 -8 -8 -3 -10 3 -25 6 -33 6 -8 0 -14 5 -14 11 0 12 40 2 55 -14z m45 -19 c0
-13 -23 -5 -28 10 -2 7 2 10 12 6 9 -3 16 -11 16 -16z m40 2 c0 -13 -5 -18
-15 -14 -11 5 -12 9 -2 20 16 18 17 17 17 -6z m267 -66 c-3 -3 -12 -4 -19 -1
-8 3 -5 6 6 6 11 1 17 -2 13 -5z m-27 -14 c13 -8 13 -10 -2 -10 -9 0 -20 5
-23 10 -8 13 5 13 25 0z m61 1 c7 11 9 9 9 -6 0 -17 2 -17 10 -5 8 13 10 13
10 -2 0 -9 6 -19 13 -21 7 -3 6 -6 -5 -6 -9 -1 -20 4 -23 9 -3 6 -17 10 -31
10 -13 0 -24 5 -24 11 0 5 5 7 10 4 6 -3 10 0 11 7 0 10 2 10 6 -1 5 -11 7
-11 14 0z m129 -39 c3 -2 -5 -1 -17 2 -14 5 -23 3 -23 -3 0 -6 -7 -11 -15 -11
-8 0 -15 5 -15 11 0 5 5 7 10 4 6 -3 10 1 10 10 0 13 4 14 23 4 12 -6 24 -14
27 -17z m17 -24 c-3 -7 -5 -2 -5 12 0 14 2 19 5 13 2 -7 2 -19 0 -25z m-17 2
c0 -5 -7 -7 -15 -4 -8 4 -15 8 -15 10 0 2 7 4 15 4 8 0 15 -4 15 -10z m65 -20
c3 -5 1 -10 -4 -10 -6 0 -11 5 -11 10 0 6 2 10 4 10 3 0 8 -4 11 -10z m159
-42 c7 -5 4 -8 -6 -8 -12 0 -18 7 -17 23 0 15 2 17 6 7 3 -8 11 -18 17 -22z
m73 -6 c-9 -2 -15 -8 -12 -13 8 -12 -16 -11 -35 1 -12 8 -11 10 8 10 12 0 22
4 22 10 0 5 8 6 18 2 16 -6 16 -7 -1 -10z m67 -44 c5 -4 -6 -3 -25 2 -18 6
-35 10 -36 10 -2 0 -3 4 -3 10 0 10 45 -6 64 -22z m31 22 c13 -6 15 -9 5 -9
-8 0 -22 4 -30 9 -18 12 -2 12 25 0z m18633 -22 c6 -6 12 -16 12 -24 0 -25 20
-25 30 0 11 29 31 33 50 11 10 -12 15 -13 21 -4 13 21 56 1 69 -32 l13 -31 14
26 c14 27 28 28 93 6 14 -5 36 -10 50 -12 17 -2 31 -14 42 -37 l17 -34 7 27
c7 30 38 36 48 9 6 -14 9 -15 15 -4 9 14 3 16 163 -38 48 -17 95 -34 105 -40
10 -5 40 -15 66 -22 35 -9 52 -19 60 -37 9 -20 12 -21 17 -7 5 15 8 14 32 -4
14 -12 33 -21 41 -21 28 0 44 -28 51 -86 4 -32 10 -62 15 -68 26 -35 80 -146
73 -150 -5 -3 -20 2 -33 12 -13 9 -30 17 -37 18 -27 4 -40 26 -52 86 -12 63
-82 202 -88 174 -2 -8 -13 -17 -25 -19 -19 -3 -18 -5 11 -16 33 -13 52 -37 52
-66 0 -12 -6 -15 -20 -10 -34 11 -22 -10 13 -23 27 -10 36 -21 46 -53 7 -23
11 -43 8 -45 -5 -5 -87 23 -102 36 -7 6 -30 55 -51 111 -35 91 -55 121 -70
106 -3 -2 11 -44 30 -93 42 -102 42 -104 17 -104 -26 0 -33 12 -75 115 -32 77
-70 134 -82 122 -2 -2 12 -42 31 -90 19 -48 35 -91 35 -97 0 -13 -37 -13 -45
0 -3 6 -21 10 -39 10 -19 0 -39 6 -45 14 -7 8 -21 12 -31 9 -11 -3 -28 -2 -37
2 -10 5 -27 7 -38 6 -30 -3 -50 18 -74 79 -19 49 -25 55 -52 57 -21 2 -29 -2
-26 -10 37 -99 35 -108 -16 -89 -19 7 -45 12 -59 12 -14 0 -31 7 -38 15 -9 11
-16 12 -26 4 -7 -6 -18 -8 -24 -4 -6 4 -33 9 -58 11 -26 3 -50 8 -54 12 -15
16 -118 284 -113 293 7 10 42 3 63 -13z m-18568 0 c0 -4 -4 -8 -9 -8 -6 0 -12
4 -15 8 -3 5 1 9 9 9 8 0 15 -4 15 -9z m-40 -8 c12 -8 11 -10 -7 -10 -12 0
-25 5 -28 10 -8 13 15 13 35 0z m247 -56 c-3 -3 -12 -4 -19 -1 -8 3 -5 6 6 6
11 1 17 -2 13 -5z m0 -18 c38 -10 53 -11 57 -2 2 6 5 3 5 -6 1 -10 6 -18 11
-18 18 0 25 -2 43 -11 11 -6 17 -6 17 1 0 5 -5 10 -12 10 -6 0 -8 3 -5 7 4 3
16 -3 27 -15 12 -12 26 -22 32 -22 6 0 9 -3 6 -6 -7 -6 -119 25 -132 37 -6 5
-19 9 -30 9 -19 1 -89 27 -76 29 3 0 28 -5 57 -13z m100 -12 c-3 -3 -12 -4
-19 -1 -8 3 -5 6 6 6 11 1 17 -2 13 -5z m310 -116 c-3 -7 -5 -2 -5 12 0 14 2
19 5 13 2 -7 2 -19 0 -25z m-17 6 c0 -2 -7 -4 -15 -4 -8 0 -15 4 -15 10 0 5 7
7 15 4 8 -4 15 -8 15 -10z m80 1 c0 -2 -7 -5 -15 -9 -9 -3 -15 0 -15 9 0 9 6
12 15 9 8 -4 15 -7 15 -9z m53 -43 c7 -9 6 -11 -7 -6 -9 3 -16 16 -15 28 0 14
2 16 6 6 3 -8 10 -21 16 -28z m-33 7 c0 -4 -7 -6 -15 -3 -8 4 -15 10 -15 15 0
4 7 6 15 3 8 -4 15 -10 15 -15z m110 -9 c0 -17 -27 -23 -47 -10 -15 10 -14 10
10 5 19 -4 26 -2 22 5 -3 5 -1 10 4 10 6 0 11 -5 11 -10z m195 -80 c3 -6 -1
-7 -9 -4 -18 7 -21 14 -7 14 6 0 13 -4 16 -10z m73 -2 c-6 -17 -37 -23 -50
-10 -6 6 0 8 18 4 19 -3 25 -1 20 7 -4 6 -2 11 4 11 7 0 10 -6 8 -12z m76 -41
c6 -5 -4 -6 -24 -3 -19 4 -39 11 -45 17 -7 7 -2 8 18 4 19 -5 27 -3 28 6 0 11
2 10 6 -1 3 -8 11 -19 17 -23z m79 -6 c-4 -3 -11 -10 -15 -15 -5 -5 -8 0 -8
12 0 15 4 20 16 15 9 -3 12 -9 7 -12z m174 -73 c-3 -7 -5 -2 -5 12 0 14 2 19
5 13 2 -7 2 -19 0 -25z m103 -13 c0 -8 9 -17 21 -20 11 -4 18 -9 16 -12 -11
-10 -47 9 -47 25 0 15 -2 15 -10 2 -8 -12 -10 -11 -10 7 0 16 4 21 15 17 8 -4
15 -12 15 -19z m145 -35 c3 -5 1 -10 -4 -10 -6 0 -11 5 -11 10 0 6 2 10 4 10
3 0 8 -4 11 -10z m-68 -6 c-3 -3 -12 -4 -19 -1 -8 3 -5 6 6 6 11 1 17 -2 13
-5z m38 -14 c3 -6 -1 -7 -9 -4 -18 7 -21 14 -7 14 6 0 13 -4 16 -10z m192 -52
c-3 -8 -6 -5 -6 6 -1 11 2 17 5 13 3 -3 4 -12 1 -19z m97 -17 c-2 -2 4 -10 14
-17 12 -10 4 -9 -30 2 -27 9 -48 17 -48 18 0 1 15 2 34 2 19 -1 32 -3 30 -5z
m94 -36 c12 -3 22 -11 22 -16 0 -6 -7 -6 -19 1 -11 5 -29 10 -40 10 -12 0 -21
5 -21 11 0 6 8 8 18 5 9 -2 27 -7 40 -11z m239 -81 c-3 -3 -12 -4 -19 -1 -8 3
-5 6 6 6 11 1 17 -2 13 -5z m76 -13 c9 -1 17 -6 17 -11 0 -6 -11 -8 -27 -4
-32 8 -55 24 -27 19 11 -2 27 -4 37 -4z m77 -27 c0 -2 -11 -4 -25 -4 -14 0
-25 4 -25 9 0 4 11 6 25 3 14 -2 25 -6 25 -8z m37 -16 c-3 -8 -6 -5 -6 6 -1
11 2 17 5 13 3 -3 4 -12 1 -19z m271 -84 c-2 -2 -21 1 -42 7 -21 6 -36 12 -34
15 2 2 19 0 36 -5 27 -8 32 -7 33 7 1 14 2 14 6 -1 3 -10 3 -20 1 -23z m62
-20 c0 -2 -7 -4 -15 -4 -8 0 -15 4 -15 10 0 5 7 7 15 4 8 -4 15 -8 15 -10z
m83 -21 c-7 -2 -19 -2 -25 0 -7 3 -2 5 12 5 14 0 19 -2 13 -5z m134 -19 c-3
-3 -12 -4 -19 -1 -8 3 -5 6 6 6 11 1 17 -2 13 -5z m110 -56 c-3 -7 -5 -2 -5
12 0 14 2 19 5 13 2 -7 2 -19 0 -25z m38 -16 c-3 -3 -11 0 -18 7 -9 10 -8 11
6 5 10 -3 15 -9 12 -12z m45 3 c0 -8 -7 -15 -15 -15 -8 0 -15 5 -15 11 0 5 5
7 10 4 6 -3 10 -1 10 4 0 6 2 11 5 11 3 0 5 -7 5 -15z m34 -17 c7 -5 4 -8 -6
-8 -12 0 -18 7 -17 23 0 15 2 17 6 7 3 -8 11 -18 17 -22z m86 -8 c0 -5 -2 -10
-4 -10 -3 0 -8 5 -11 10 -3 6 -1 10 4 10 6 0 11 -4 11 -10z m-30 -10 c13 -9
13 -10 0 -10 -8 0 -22 5 -30 10 -13 9 -13 10 0 10 8 0 22 -5 30 -10z m280 -86
c0 -2 -7 -4 -15 -4 -8 0 -15 4 -15 10 0 5 7 7 15 4 8 -4 15 -8 15 -10z m35
-14 c3 -6 -1 -7 -9 -4 -18 7 -21 14 -7 14 6 0 13 -4 16 -10z m45 -16 c0 -2 -7
-4 -15 -4 -8 0 -15 4 -15 10 0 5 7 7 15 4 8 -4 15 -8 15 -10z m85 -2 c-3 -3
-11 0 -18 7 -9 10 -8 11 6 5 10 -3 15 -9 12 -12z m-44 -10 c-7 -2 -18 1 -23 6
-8 8 -4 9 13 5 13 -4 18 -8 10 -11z m276 -78 c-3 -3 -12 -4 -19 -1 -8 3 -5 6
6 6 11 1 17 -2 13 -5z m79 -17 c1 -9 -2 -17 -8 -17 -6 0 -8 6 -5 14 3 8 2 17
-4 20 -5 2 -4 3 2 2 7 -1 13 -10 15 -19z m-26 -3 c0 -2 -7 -4 -15 -4 -8 0 -15
4 -15 10 0 5 7 7 15 4 8 -4 15 -8 15 -10z m125 -14 c3 -6 -1 -7 -9 -4 -18 7
-21 14 -7 14 6 0 13 -4 16 -10z m230 -90 c3 -5 1 -10 -4 -10 -6 0 -11 5 -11
10 0 6 2 10 4 10 3 0 8 -4 11 -10z m84 -26 c13 -13 -10 -12 -35 2 l-29 16 30
-7 c16 -4 32 -9 34 -11z m408 -127 c4 -7 0 -8 -11 -4 -10 4 -22 7 -27 7 -5 0
-9 4 -9 9 0 12 38 2 47 -12z m260 -69 c-3 -8 -6 -5 -6 6 -1 11 2 17 5 13 3 -3
4 -12 1 -19z m-20 -4 c-3 -3 -12 -4 -19 -1 -8 3 -5 6 6 6 11 1 17 -2 13 -5z
m83 -24 c8 -5 11 -10 5 -10 -5 0 -17 5 -25 10 -8 5 -10 10 -5 10 6 0 17 -5 25
-10z m45 -18 c-3 -3 -11 0 -18 7 -9 10 -8 11 6 5 10 -3 15 -9 12 -12z m366
-110 c-7 -2 -18 1 -23 6 -8 8 -4 9 13 5 13 -4 18 -8 10 -11z m54 -20 c-3 -3
-11 0 -18 7 -9 10 -8 11 6 5 10 -3 15 -9 12 -12z m420 -122 c3 -6 -1 -7 -9 -4
-18 7 -21 14 -7 14 6 0 13 -4 16 -10z m319 -92 c7 -5 4 -8 -6 -8 -12 0 -18 7
-17 23 0 15 2 17 6 7 3 -8 11 -18 17 -22z m66 -24 c0 -2 -7 -4 -15 -4 -8 0
-15 4 -15 10 0 5 7 7 15 4 8 -4 15 -8 15 -10z m70 -26 c0 -4 -4 -8 -9 -8 -6 0
-12 4 -15 8 -3 5 1 9 9 9 8 0 15 -4 15 -9z m75 -18 c3 -6 -1 -7 -9 -4 -18 7
-21 14 -7 14 6 0 13 -4 16 -10z m55 -20 c0 -5 -2 -10 -4 -10 -3 0 -8 5 -11 10
-3 6 -1 10 4 10 6 0 11 -4 11 -10z m477 -16 c-3 -3 -12 -4 -19 -1 -8 3 -5 6 6
6 11 1 17 -2 13 -5z m-271 -34 c8 0 13 -4 9 -10 -10 -16 -35 1 -34 24 1 16 2
17 6 4 2 -10 11 -18 19 -18z m-36 -1 c0 -4 -7 -6 -15 -3 -8 4 -15 10 -15 15 0
4 7 6 15 3 8 -4 15 -10 15 -15z m180 -48 c0 -4 -13 -6 -30 -3 -16 2 -30 7 -30
11 0 4 14 6 30 3 17 -2 30 -7 30 -11z m70 -21 c0 -13 -11 -13 -30 0 -12 8 -11
10 8 10 12 0 22 -4 22 -10z m104 -22 c4 3 6 0 6 -7 0 -7 -10 -9 -27 -6 -16 3
-34 7 -41 9 -7 1 -18 8 -24 14 -9 9 1 8 34 -2 26 -7 49 -11 52 -8z m96 -38 c0
-5 -2 -10 -4 -10 -3 0 -8 5 -11 10 -3 6 -1 10 4 10 6 0 11 -4 11 -10z m74 -18
c3 -5 -1 -9 -9 -9 -8 0 -15 4 -15 9 0 4 4 8 9 8 6 0 12 -4 15 -8z m-276 -237
c12 -4 22 -12 22 -17 0 -11 -43 1 -48 13 -5 13 -36 11 -51 -3 -11 -10 -13 -10
-7 0 4 6 2 12 -4 12 -6 0 -9 4 -6 9 5 8 33 4 94 -14z m-191 -1 c-3 -3 -12 -4
-19 -1 -8 3 -5 6 6 6 11 1 17 -2 13 -5z m30 -26 c-3 -7 -5 -2 -5 12 0 14 2 19
5 13 2 -7 2 -19 0 -25z m-107 7 c0 -8 -4 -15 -9 -15 -5 0 -11 7 -15 15 -3 9 0
15 9 15 8 0 15 -7 15 -15z m60 -26 c0 -5 -7 -9 -15 -9 -8 0 -15 7 -15 15 0 9
6 12 15 9 8 -4 15 -10 15 -15z m188 -2 c12 -5 22 -14 22 -19 0 -5 -12 -1 -26
9 -25 16 -27 16 -36 0 -5 -10 -13 -15 -19 -12 -5 4 -9 1 -9 -4 0 -15 -27 -14
-33 2 -3 9 -7 9 -20 -1 -9 -8 -21 -11 -27 -7 -17 10 -11 25 10 25 11 0 20 4
20 9 0 20 75 19 118 -2z m69 -9 c-3 -8 -6 -5 -6 6 -1 11 2 17 5 13 3 -3 4 -12
1 -19z m53 -14 c0 -2 -7 -4 -15 -4 -8 0 -15 4 -15 10 0 5 7 7 15 4 8 -4 15 -8
15 -10z m-413 -39 c-1 -21 -4 -30 -9 -22 -11 17 -10 57 1 57 5 0 9 -16 8 -35z
m48 16 c-3 -6 -11 -8 -17 -5 -6 4 -5 9 3 15 16 10 23 4 14 -10z m91 8 c4 -8
-1 -9 -16 -4 -21 7 -22 5 -16 -19 5 -20 3 -26 -10 -26 -10 0 -14 6 -11 14 3 8
1 17 -6 20 -9 3 -8 8 3 15 20 14 47 14 56 0z m145 -24 c7 -19 18 -35 25 -35 7
0 14 -5 16 -11 3 -8 16 -6 42 5 22 9 41 14 43 12 2 -2 -16 -12 -41 -22 -25
-11 -46 -25 -46 -31 0 -7 -8 -13 -17 -13 -9 0 -30 -12 -46 -27 l-30 -28 7 28
c4 17 2 35 -4 42 -9 10 -4 15 20 20 16 4 30 13 30 21 0 17 -24 18 -51 2 -17
-11 -22 -10 -33 5 -7 9 -19 17 -26 17 -9 0 -10 -3 -1 -13 6 -8 8 -17 4 -20
-11 -12 -20 -8 -27 11 -3 9 -9 23 -12 30 -3 7 1 12 9 12 9 0 18 6 21 13 5 10
7 10 12 0 3 -7 12 -13 20 -13 8 0 14 -7 14 -15 0 -11 6 -12 23 -6 14 5 22 17
21 30 -1 32 13 25 27 -14z m95 9 c-9 -8 -21 -12 -28 -8 -8 5 -6 10 8 15 31 12
37 10 20 -7z m-46 -8 c0 -3 -4 -8 -10 -11 -5 -3 -10 -1 -10 4 0 6 5 11 10 11
6 0 10 -2 10 -4z m30 -26 c0 -5 -4 -10 -10 -10 -5 0 -10 5 -10 10 0 6 5 10 10
10 6 0 10 -4 10 -10z m-371 -45 c1 6 6 2 12 -8 13 -22 8 -30 -15 -21 -11 4
-16 17 -15 43 l1 36 8 -30 c4 -16 8 -25 9 -20z m51 28 c7 -11 13 -14 16 -7 5
12 52 7 72 -9 7 -5 10 -18 7 -28 -4 -13 0 -18 17 -21 15 -2 22 -9 22 -21 -1
-13 3 -16 16 -12 11 3 20 0 24 -10 3 -8 17 -15 32 -15 22 0 25 2 14 15 -11 13
-8 15 21 11 19 -3 43 -5 54 -5 18 -1 17 -3 -5 -16 -14 -8 -33 -18 -42 -21 -10
-3 -18 -10 -18 -15 0 -5 -6 -6 -14 -3 -8 3 -17 1 -21 -5 -3 -6 -16 -11 -28
-11 -20 0 -20 0 -2 -14 20 -15 40 -12 30 5 -4 5 13 7 38 5 42 -4 44 -3 39 17
-5 21 -5 21 22 4 14 -10 31 -15 36 -12 5 3 11 1 14 -4 3 -5 -6 -12 -20 -15
l-27 -7 24 -25 c15 -16 25 -20 30 -13 4 7 12 8 22 3 11 -7 13 -14 7 -24 -7
-10 -10 -11 -10 -2 0 6 -5 12 -11 12 -6 0 -8 -9 -4 -21 5 -14 3 -20 -7 -18 -7
1 -24 -2 -37 -8 -31 -12 -11 -28 25 -19 17 5 24 2 24 -9 0 -10 10 -15 34 -15
36 0 58 -26 31 -36 -8 -4 -15 -12 -15 -19 0 -7 -18 -15 -41 -18 -23 -3 -45
-11 -49 -17 -6 -9 -12 -9 -28 1 -14 9 -27 10 -42 3 -21 -9 -20 -11 20 -29 34
-15 47 -17 71 -8 23 9 29 9 29 -2 0 -7 -16 -19 -35 -25 -40 -13 -44 -26 -12
-41 17 -7 12 -9 -25 -6 -44 4 -46 3 -35 -15 9 -15 20 -18 44 -14 19 2 36 0 42
-8 7 -9 3 -12 -17 -14 -14 -1 -31 -7 -37 -13 -7 -8 -3 -10 14 -7 13 1 26 -3
28 -9 3 -8 -4 -13 -16 -13 -30 0 -26 -13 11 -29 27 -12 32 -12 42 1 6 8 21 18
34 22 12 4 22 12 22 17 0 6 5 7 11 3 8 -4 7 -9 -2 -15 -12 -8 -11 -11 1 -19
13 -9 13 -10 0 -11 -8 -1 -21 -1 -27 0 -7 1 -13 -3 -13 -9 0 -5 -9 -10 -20
-10 -11 0 -20 -5 -20 -11 0 -7 10 -9 27 -4 23 5 25 4 14 -9 -8 -9 -23 -16 -35
-16 -16 0 -18 -2 -7 -9 23 -15 23 -58 0 -64 -16 -4 -19 -2 -14 14 4 13 2 19
-8 19 -9 0 -17 -4 -19 -10 -1 -5 -16 -11 -31 -12 -16 -1 -33 -8 -38 -14 -13
-16 38 -29 57 -14 7 7 18 9 24 5 18 -11 11 -25 -14 -25 -14 0 -28 -5 -32 -12
-5 -8 -2 -9 10 -5 10 4 23 4 29 0 12 -8 17 -9 37 -12 6 0 10 -6 10 -12 0 -6
-9 -9 -19 -6 -26 6 -43 -6 -35 -26 7 -18 44 -24 44 -7 0 6 7 10 15 10 8 0 15
-4 15 -8 0 -14 -23 -32 -42 -32 -10 0 -18 -3 -18 -6 0 -12 26 -30 39 -26 8 3
12 -2 9 -14 -3 -15 -11 -18 -36 -16 -18 2 -32 -1 -32 -7 0 -6 -7 -11 -16 -11
-10 0 -14 6 -10 15 3 8 1 15 -4 15 -6 0 -10 -4 -10 -9 0 -5 -13 -14 -30 -20
-16 -5 -30 -15 -30 -21 0 -7 6 -8 18 -1 10 5 45 13 78 16 32 3 74 8 92 11 20
4 32 2 32 -5 0 -6 -6 -11 -13 -11 -8 0 -27 -13 -43 -30 -31 -32 -81 -42 -70
-14 4 10 1 14 -6 12 -14 -5 -20 -78 -6 -78 4 0 8 -9 8 -20 0 -11 4 -20 9 -20
5 0 11 9 14 20 5 21 31 27 42 10 9 -15 45 27 45 52 0 10 5 18 10 18 6 0 10
-16 8 -35 -1 -19 -7 -35 -13 -35 -17 0 -48 -37 -43 -51 2 -7 -4 -21 -14 -31
-26 -26 -33 -22 -14 7 9 13 16 30 16 37 0 8 -5 6 -11 -4 -5 -10 -18 -18 -27
-18 -23 0 -48 -17 -39 -26 3 -4 13 -1 22 6 13 11 14 10 7 -11 -7 -18 -19 -26
-48 -30 -21 -3 -29 -7 -16 -8 12 0 22 -5 22 -10 0 -6 12 -3 27 4 26 13 28 13
35 -6 5 -11 13 -17 19 -13 8 4 9 -3 5 -25 -11 -58 -16 -96 -10 -83 5 11 34 18
34 8 0 -13 -49 -56 -63 -56 -9 0 -19 -9 -22 -20 -4 -11 -11 -18 -16 -15 -8 6
-10 0 -8 -22 1 -12 33 -2 42 13 4 7 14 11 22 8 8 -4 15 -1 15 5 0 6 5 11 10
11 20 0 9 -34 -21 -62 -29 -28 -31 -29 -44 -11 -13 16 -14 15 -15 -19 0 -41
-22 -75 -57 -89 -13 -5 -23 -15 -23 -24 0 -14 -3 -14 -31 0 -17 9 -33 14 -36
11 -3 -3 12 -12 33 -21 35 -14 39 -14 47 0 6 12 12 13 22 5 23 -19 58 6 51 35
-5 18 -1 25 13 30 10 3 21 15 24 26 3 12 10 18 16 14 6 -3 11 -1 11 4 0 6 5
10 11 8 6 -1 16 12 22 28 13 39 16 42 27 25 14 -21 12 -30 -5 -30 -8 0 -15 -9
-15 -20 0 -13 -7 -20 -18 -20 -12 0 -23 -13 -32 -35 -7 -19 -19 -36 -25 -39
-11 -4 -12 -28 -6 -108 1 -4 8 -4 18 -1 11 4 14 3 9 -6 -4 -6 -16 -9 -27 -6
-13 4 -17 2 -14 -7 3 -7 -7 -21 -22 -30 l-28 -17 30 -1 30 -1 -22 -16 c-13 -8
-23 -21 -23 -27 0 -6 4 -4 10 4 5 8 12 11 16 7 4 -4 2 -13 -4 -19 -7 -7 -12
-20 -12 -31 0 -10 -3 -16 -7 -14 -5 2 -21 -2 -38 -9 l-30 -13 29 -1 c24 0 27
-2 16 -15 -10 -12 -9 -15 8 -15 11 0 25 7 32 15 14 17 70 21 70 5 0 -10 -19
-14 -52 -11 -10 1 -18 -4 -18 -12 0 -8 -9 -17 -20 -20 -11 -3 -20 -1 -20 4 0
11 -40 12 -58 0 -9 -5 -3 -8 18 -9 17 0 37 -6 44 -12 8 -5 20 -9 27 -7 8 2 11
2 6 0 -4 -3 -5 -9 -1 -14 3 -5 -6 -9 -20 -9 -14 0 -29 -6 -33 -13 -4 -7 -19
-18 -33 -25 -24 -12 -23 -12 10 -6 19 3 43 6 53 6 9 -1 15 3 12 9 -4 5 -1 9 6
9 7 0 23 10 36 22 36 34 27 3 -10 -36 -33 -34 -34 -34 -109 -30 -59 3 -77 0
-81 -10 -5 -12 7 -13 64 -9 65 4 69 3 69 -16 0 -12 -5 -21 -12 -21 -6 0 -9 -3
-5 -6 10 -11 97 -10 100 1 3 5 8 6 13 2 13 -13 -27 -39 -41 -27 -7 6 -24 6
-46 0 -44 -13 -92 -13 -84 0 3 6 0 10 -7 10 -8 1 -6 6 5 15 11 7 25 11 33 8 8
-3 14 0 14 6 0 14 -22 14 -54 0 -18 -9 -29 -9 -38 -1 -9 7 -19 6 -33 -4 -10
-8 -27 -12 -37 -8 -11 3 -18 0 -18 -7 0 -10 -3 -10 -12 -1 -7 7 -21 12 -32 12
-10 0 -17 3 -13 6 3 3 22 6 41 6 20 0 39 4 42 9 3 5 -2 9 -10 9 -34 0 -13 16
44 33 33 9 60 21 60 26 0 12 -49 20 -56 10 -3 -5 -14 -9 -25 -9 -11 0 -18 -4
-15 -8 3 -5 -8 -6 -25 -4 -30 4 -37 -6 -17 -26 9 -9 9 -12 -2 -12 -40 1 -60
13 -58 36 3 27 3 27 27 15 12 -7 26 -5 45 5 16 8 35 14 43 14 23 0 9 25 -15
28 -12 2 -22 10 -22 18 0 16 -18 18 -40 4 -12 -8 -11 -10 6 -10 12 0 27 -7 34
-15 10 -13 9 -15 -8 -15 -12 0 -23 4 -27 10 -3 5 -12 7 -20 3 -20 -7 -45 15
-38 33 3 7 9 11 14 8 13 -7 49 5 49 17 0 6 -5 7 -10 4 -11 -7 -70 15 -70 26 0
4 19 6 43 6 28 -1 47 -8 56 -20 9 -13 17 -15 24 -8 13 13 -29 50 -59 51 -11 0
-29 7 -40 16 -16 13 -16 15 -1 10 31 -10 18 15 -14 26 l-31 11 38 13 c22 8 49
14 62 14 23 0 32 19 10 21 -7 1 -23 3 -35 4 -13 1 -23 -2 -23 -6 0 -5 -9 -1
-20 8 -31 27 -24 35 21 28 30 -5 40 -4 35 4 -4 6 -14 10 -23 9 -8 -2 -19 4
-23 12 -4 8 -12 25 -18 37 -9 17 -8 24 5 35 13 10 17 10 20 1 5 -15 33 -18 33
-4 0 13 -29 35 -37 28 -12 -13 -30 14 -25 38 3 18 11 25 28 25 32 0 30 13 -6
43 -28 24 -29 26 -10 32 27 9 25 19 -5 33 -29 13 -31 24 -10 45 13 13 13 19 0
43 -14 28 -9 57 6 33 4 -7 11 -10 15 -7 10 10 -5 60 -16 53 -12 -7 -33 33 -26
51 3 8 12 14 21 14 19 0 20 16 0 24 -8 3 -15 17 -15 31 0 16 6 25 15 25 19 0
19 27 0 37 -9 6 -15 24 -16 48 -1 60 3 75 19 75 9 0 13 7 9 20 -3 10 1 27 8
37 13 17 12 24 -7 75 -9 23 -15 27 -37 22 -21 -4 -23 -3 -9 6 9 6 15 17 12 25
-7 17 7 20 23 4 7 -7 13 -7 17 -1 7 12 -49 36 -63 28 -5 -4 -15 2 -21 13 -7
14 -7 22 2 27 6 4 13 3 15 -3 2 -6 12 -9 23 -6 11 3 26 -3 36 -16 19 -22 54
-29 54 -11 0 6 -7 10 -15 10 -14 0 -17 5 -19 39 -1 8 -8 16 -16 18 -13 4 -13
3 0 -6 12 -9 10 -11 -12 -11 -16 0 -28 5 -28 10 0 6 5 10 10 10 6 0 10 7 10
16 0 10 6 14 14 11 15 -6 36 10 36 28 0 5 -10 15 -22 20 -13 6 -27 24 -33 43
-6 21 -15 32 -27 32 -24 0 -23 17 2 30 25 13 26 36 3 49 -16 9 -16 10 5 11 25
0 28 10 10 29 -11 10 -8 12 12 9 16 -2 26 -11 30 -27 3 -14 11 -26 17 -28 12
-4 11 10 -2 40 -4 10 -5 21 -1 24 3 3 -8 15 -25 25 -26 16 -34 17 -40 6 -6 -9
-9 -6 -9 10 0 12 7 25 15 28 8 4 15 10 15 16 0 5 -4 6 -10 3 -5 -3 -10 -1 -10
4 0 6 5 11 10 11 15 0 12 30 -2 30 -8 1 -7 5 4 13 9 7 16 21 15 31 -3 29 18
29 31 1 6 -14 17 -25 24 -25 8 0 7 6 -4 16 -15 16 -15 18 5 35 l22 18 -22 1
c-13 0 -23 -6 -23 -12 0 -8 -7 -5 -15 6 -12 15 -12 22 -3 27 7 5 16 3 21 -4 5
-7 6 -4 2 8 -4 11 -9 31 -11 45 -2 17 -1 19 3 5 6 -21 31 -44 50 -45 15 0 5
37 -11 43 -7 3 -13 19 -14 36 0 22 3 28 14 24 8 -3 14 -11 14 -19 0 -14 38
-39 47 -30 3 3 -2 17 -11 30 -18 28 -21 56 -7 56 5 0 11 -10 13 -22 2 -16 11
-24 28 -26 19 -3 22 -1 13 10 -5 7 -13 25 -17 41 -6 27 -38 38 -51 17 -6 -10
-45 18 -45 32 0 14 19 8 30 -9z m160 -34 c0 -5 -4 -9 -10 -9 -5 0 -10 7 -10
16 0 8 5 12 10 9 6 -3 10 -10 10 -16z m30 -29 c0 -5 -7 -10 -15 -10 -8 0 -15
5 -15 10 0 6 7 10 15 10 8 0 15 -4 15 -10z m173 -44 c-5 -26 -28 -42 -38 -26
-7 12 5 41 15 35 5 -3 11 -1 15 5 10 16 13 12 8 -14z m104 18 c-3 -3 -12 -4
-19 -1 -8 3 -5 6 6 6 11 1 17 -2 13 -5z m-540 -36 c-3 -8 -6 -5 -6 6 -1 11 2
17 5 13 3 -3 4 -12 1 -19z m463 -78 c0 -5 -10 -10 -22 -10 -19 0 -20 2 -8 10
19 13 30 13 30 0z m40 -20 c0 -5 -7 -10 -16 -10 -8 0 -12 5 -9 10 3 6 10 10
16 10 5 0 9 -4 9 -10z m50 -54 c0 -3 -4 -8 -10 -11 -5 -3 -10 -1 -10 4 0 6 5
11 10 11 6 0 10 -2 10 -4z m-90 -26 c0 -5 -5 -10 -11 -10 -5 0 -7 5 -4 10 3 6
8 10 11 10 2 0 4 -4 4 -10z m65 -20 c3 -5 1 -10 -4 -10 -6 0 -11 5 -11 10 0 6
2 10 4 10 3 0 8 -4 11 -10z m8655 -4 c0 -3 -4 -8 -10 -11 -5 -3 -10 -1 -10 4
0 6 5 11 10 11 6 0 10 -2 10 -4z m70 -20 c0 -9 -40 -13 -46 -5 -3 5 6 9 20 9
14 0 26 -2 26 -4z m-473 -38 c-3 -8 -6 -5 -6 6 -1 11 2 17 5 13 3 -3 4 -12 1
-19z m44 5 c2 -31 -2 -48 -15 -58 -7 -5 -13 -14 -14 -20 0 -5 -5 -11 -10 -13
-5 -1 -9 13 -10 33 -1 34 11 48 21 23 3 -7 6 2 6 20 1 33 20 46 22 15z m339
-12 c0 -5 -7 -11 -14 -14 -10 -4 -13 -1 -9 9 6 15 23 19 23 5z m40 -1 c0 -5
-4 -10 -10 -10 -5 0 -10 5 -10 10 0 6 5 10 10 10 6 0 10 -4 10 -10z m520 -25
c0 -8 -4 -15 -10 -15 -5 0 -10 7 -10 15 0 8 5 15 10 15 6 0 10 -7 10 -15z
m-540 -10 c0 -8 -7 -15 -16 -15 -14 0 -14 3 -4 15 7 8 14 15 16 15 2 0 4 -7 4
-15z m40 1 c0 -3 -4 -8 -10 -11 -5 -3 -10 -1 -10 4 0 6 5 11 10 11 6 0 10 -2
10 -4z m30 -21 c0 -25 -14 -34 -24 -16 -8 12 3 41 15 41 5 0 9 -11 9 -25z
m-421 -32 c0 -25 -1 -26 -9 -8 -12 27 -12 35 0 35 6 0 10 -12 9 -27z m381 -3
c-17 -11 -40 -13 -40 -4 0 15 35 32 45 23 6 -7 5 -13 -5 -19z m505 20 c-4 -6
-8 -66 -11 -133 -2 -67 -6 -140 -9 -162 -8 -64 -22 -273 -30 -430 -3 -55 -10
-174 -15 -265 -6 -91 -12 -226 -14 -302 -2 -75 -5 -140 -7 -145 -12 -26 0
-970 13 -1072 0 -3 0 -8 -1 -11 -1 -3 -4 -25 -7 -50 -6 -68 -7 -70 -16 -64 -4
3 -8 18 -8 34 0 16 -6 47 -14 67 -14 38 -41 237 -51 388 -7 101 -7 585 0 685
2 41 9 156 15 255 6 99 12 198 14 220 3 22 7 78 11 125 7 92 13 159 20 230 3
25 7 77 10 115 3 39 8 84 10 100 3 17 7 58 10 92 3 35 10 74 15 88 5 14 15 75
22 135 10 96 14 110 31 110 10 0 15 -5 12 -10z m-9225 -20 c-19 -13 -30 -13
-30 0 0 6 10 10 23 10 18 0 19 -2 7 -10z m-26 -19 c16 -9 31 -23 34 -31 2 -9
0 -11 -5 -5 -12 15 -51 35 -68 35 -9 0 -13 5 -10 10 8 13 14 12 49 -9z m8329
4 c-3 -9 -8 -14 -10 -11 -3 3 -2 9 2 15 9 16 15 13 8 -4z m447 1 c0 -2 3 -11
6 -20 4 -11 1 -16 -10 -16 -19 0 -20 -5 -6 -31 8 -15 7 -19 -5 -19 -8 0 -15
-4 -15 -10 0 -5 4 -10 8 -10 4 0 8 -29 8 -65 0 -36 -2 -65 -5 -65 -3 0 -6 -44
-7 -98 -2 -138 -10 -297 -16 -308 -3 -5 -6 -29 -7 -54 -1 -25 -4 -63 -6 -85
-2 -22 -4 -109 -5 -193 -1 -84 -6 -169 -12 -189 -6 -21 -6 -38 -1 -42 12 -8
12 -51 0 -51 -4 0 -8 -51 -8 -112 0 -193 -3 -273 -11 -278 -3 -3 -9 -19 -13
-35 -4 -17 -3 -25 2 -18 5 7 8 -12 8 -47 0 -32 -4 -56 -9 -52 -5 3 -6 -1 -1
-8 4 -7 7 -30 7 -51 -1 -21 2 -40 7 -43 5 -4 5 -22 -1 -43 -5 -21 -11 -72 -12
-114 -2 -42 -6 -82 -10 -88 -4 -6 -1 -11 8 -11 19 0 19 5 -3 -100 -15 -71 -16
-87 -4 -98 16 -17 16 -15 -2 -59 -8 -19 -15 -38 -15 -40 0 -3 7 0 15 7 8 7 15
18 15 25 0 7 7 15 15 19 9 3 15 0 15 -9 0 -8 -4 -15 -10 -15 -5 0 -10 -5 -10
-11 0 -6 -10 -25 -22 -41 -20 -29 -21 -31 -3 -44 20 -15 14 -64 -9 -64 -22 0
-26 12 -9 29 16 15 14 16 -18 19 -49 4 -64 11 -52 23 5 5 20 11 32 12 11 1 21
7 21 14 0 16 -15 17 -40 1 -24 -15 -35 -5 -21 19 6 11 11 13 11 5 0 -7 5 -10
12 -6 14 9 -18 34 -43 34 -22 0 -35 20 -20 30 9 5 8 10 -4 20 -12 10 -15 10
-15 0 0 -23 -13 -2 -14 22 -1 13 -7 23 -16 23 -10 0 -14 -8 -12 -22 2 -13 -1
-23 -6 -23 -17 0 -21 13 -11 32 13 24 17 104 8 141 -4 15 -4 27 1 27 11 0 20
-26 20 -56 0 -13 4 -24 9 -24 6 0 7 16 4 37 -4 24 -3 34 4 30 6 -4 13 0 17 8
7 20 -27 38 -42 23 -9 -9 -12 -8 -13 3 0 7 -7 -3 -14 -24 -8 -21 -12 -44 -9
-52 4 -9 0 -15 -10 -15 -9 0 -16 8 -16 19 0 11 -4 23 -10 26 -15 9 -12 52 3
58 10 4 12 -3 9 -24 -3 -17 0 -29 7 -29 6 0 11 14 11 30 0 17 5 30 10 30 6 0
10 16 10 35 0 19 -4 35 -10 35 -5 0 -10 -11 -10 -25 0 -15 -7 -28 -17 -32 -10
-4 -26 -16 -35 -28 -15 -18 -17 -18 -18 -2 0 9 6 17 13 17 8 0 9 2 1 8 -7 4
-14 16 -17 27 -5 20 -12 -56 -10 -108 1 -36 -19 -30 -32 9 -5 16 -14 32 -20
37 -6 4 -5 11 5 17 13 8 12 11 -4 23 -13 9 -16 20 -12 35 9 28 26 29 26 2 0
-11 5 -20 11 -20 6 0 8 9 4 22 -6 16 -4 20 8 15 20 -8 58 62 50 92 -3 12 -1
21 6 21 6 0 11 -9 11 -19 0 -11 5 -23 12 -27 8 -5 9 2 5 24 -4 17 -2 34 3 37
5 3 11 -5 13 -17 4 -21 4 -21 6 -2 0 11 -6 29 -14 40 -13 17 -14 17 -15 2 0
-20 -20 -35 -20 -16 0 7 10 24 23 38 16 18 21 32 17 49 -5 23 -6 23 -23 7 -9
-10 -21 -14 -27 -11 -5 3 -10 0 -10 -9 0 -8 -3 -16 -7 -18 -5 -1 -17 -21 -28
-42 -17 -34 -20 -37 -23 -18 -4 29 -22 18 -22 -14 0 -14 -4 -23 -10 -19 -5 3
-16 -8 -25 -24 -9 -18 -21 -28 -29 -25 -10 4 -12 -2 -9 -23 l4 -28 -15 25 -14
25 -11 -28 c-6 -16 -11 -33 -11 -40 0 -8 -3 -8 -12 1 -8 8 -8 15 -1 24 11 14
11 67 -1 86 -5 8 0 12 12 12 11 0 22 -9 25 -20 3 -11 11 -20 19 -19 10 0 10 2
1 6 -15 5 -18 43 -4 43 16 0 25 62 10 70 -13 8 -21 50 -10 50 4 0 14 -12 24
-27 l17 -28 -3 33 c-1 18 -9 37 -17 42 -22 14 -4 23 19 10 19 -9 21 -8 21 14
0 33 20 44 38 20 14 -19 15 -19 8 0 -4 11 -4 40 0 64 6 39 8 43 19 28 12 -15
13 -15 18 4 3 13 0 20 -9 20 -8 0 -14 5 -14 11 0 5 -4 7 -10 4 -5 -3 -10 -19
-10 -35 0 -16 -4 -31 -9 -34 -5 -4 -8 22 -6 59 2 36 0 67 -4 70 -5 2 -6 -7 -3
-20 5 -29 -4 -32 -30 -8 -18 16 -19 16 -25 -5 -5 -22 -7 -22 -24 -6 -10 9 -16
21 -13 26 4 6 10 5 15 -3 10 -17 24 -5 15 13 -17 37 -57 88 -69 88 -12 0 -42
31 -62 65 l-17 30 28 -30 c24 -27 27 -28 22 -8 -5 20 -3 21 12 13 27 -14 37
-12 16 3 -9 7 -19 24 -20 37 -2 14 -7 34 -12 44 -5 13 -4 17 3 13 11 -7 15 3
29 86 3 20 11 37 16 37 6 0 8 -6 5 -12 -16 -44 -18 -60 -8 -54 19 12 12 -24
-10 -55 -14 -19 -16 -29 -7 -27 8 2 14 -8 16 -24 2 -16 8 -28 13 -28 6 0 8 8
5 18 -15 51 -17 72 -7 72 18 0 44 61 32 73 -8 8 -11 8 -11 -1 0 -7 -5 -12 -12
-12 -9 0 -9 3 0 12 7 7 12 25 12 40 0 15 5 28 10 28 6 0 8 -10 5 -22 -3 -13
-1 -29 4 -37 7 -11 12 -11 31 2 12 8 29 13 36 10 8 -3 14 1 14 11 0 9 7 16 15
16 7 0 19 8 25 18 11 16 11 16 6 -2 -5 -14 -3 -17 11 -11 10 4 29 7 43 7 14 0
19 2 13 5 -18 7 -16 16 8 31 19 12 20 11 14 -10 -5 -20 -4 -20 5 -5 6 9 18 17
25 17 8 0 15 5 15 11 0 6 -9 9 -20 6 -11 -3 -20 -1 -20 4 0 9 3 10 58 15 43 3
45 6 32 38 l-10 28 -32 -27 c-21 -18 -33 -23 -38 -15 -5 7 -10 2 -14 -14 -3
-14 -13 -26 -22 -26 -14 0 -14 3 -3 16 10 13 10 17 -2 24 -9 7 -15 5 -17 -5
-4 -18 -14 -19 -31 -2 -11 10 -13 10 -7 0 4 -7 2 -13 -3 -13 -6 0 -11 14 -11
32 l0 32 -20 -22 c-22 -23 -26 -42 -9 -42 5 0 7 -5 3 -11 -5 -8 -9 -8 -14 1
-6 9 -10 7 -18 -6 -6 -10 -14 -16 -18 -12 -4 4 -2 13 3 20 16 20 25 68 13 68
-5 0 -10 -9 -10 -20 0 -18 -36 -47 -47 -37 -2 3 3 17 12 31 9 14 15 31 12 38
-4 8 -8 5 -12 -9 -4 -12 -16 -25 -26 -28 -12 -4 -19 -16 -19 -30 0 -13 -5 -27
-10 -30 -7 -5 -9 8 -5 39 6 51 -1 56 -33 26 -12 -12 -23 -16 -27 -10 -3 6 -1
10 4 10 6 0 11 9 11 20 0 11 -7 20 -15 20 -8 0 -15 9 -15 20 0 24 -15 27 -24
4 -3 -8 -11 -12 -17 -9 -8 5 -8 10 0 18 6 6 11 26 11 44 0 18 5 33 10 33 6 0
10 -4 10 -10 0 -5 5 -10 10 -10 6 0 10 15 9 33 -1 17 6 46 15 62 9 17 16 36
16 43 0 6 4 12 10 12 11 0 2 -60 -11 -75 -5 -5 -8 -23 -8 -40 2 -26 2 -27 6
-5 2 14 10 30 16 35 7 6 13 21 14 35 6 61 9 70 20 70 6 0 15 -5 19 -12 4 -7 3
-8 -4 -4 -14 9 -16 -22 -3 -43 7 -11 13 -7 25 18 9 17 21 31 27 31 5 0 10 19
9 43 0 23 4 60 9 82 l10 40 -1 -45 c0 -25 1 -49 2 -55 1 -5 2 -21 1 -35 -2
-20 0 -22 8 -10 6 8 11 23 11 33 0 9 4 17 9 17 5 0 12 8 14 18 3 12 5 11 6 -6
1 -21 5 -23 39 -21 21 2 43 0 50 -5 7 -4 12 -2 12 3 0 12 -10 14 -51 11 -24
-1 -26 2 -21 26 5 27 5 27 13 6 14 -36 22 -25 15 19 -6 35 -4 40 9 36 9 -4 19
2 25 14 6 11 15 17 21 14 5 -4 9 -2 9 2 0 8 44 30 92 46 11 4 15 12 12 22 -4
9 0 15 9 15 9 0 33 16 54 35 21 19 42 35 47 35 5 0 3 6 -3 14 -9 11 -9 17 2
27 7 8 12 31 12 52 -1 27 2 37 14 37 12 0 11 3 -4 13 -13 10 -15 16 -6 21 9 6
9 11 1 21 -7 8 -9 18 -6 23 3 5 -6 10 -19 10 -29 0 -48 -28 -51 -73 -1 -16 -7
-31 -13 -33 -6 -2 -8 -8 -5 -14 8 -13 -14 -28 -42 -28 -12 0 -27 -7 -34 -16
-11 -12 -11 -15 0 -12 7 2 15 -3 17 -10 3 -7 1 -12 -4 -10 -16 4 -83 -31 -83
-43 0 -10 3 -10 12 -1 7 7 21 12 33 11 14 0 16 -2 5 -6 -8 -3 -18 -11 -22 -17
-7 -11 -13 -12 -49 -15 -9 0 -22 -13 -29 -28 -12 -26 -13 -27 -21 -8 -7 19 -8
19 -8 -2 -1 -13 -6 -23 -12 -23 -6 0 -8 7 -5 16 5 13 2 15 -13 11 -25 -6 -54
24 -45 47 3 9 9 16 13 16 3 0 7 19 7 41 1 34 7 46 33 66 17 13 31 29 31 33 0
5 16 24 36 42 20 18 48 46 62 61 14 15 31 26 38 23 7 -3 14 3 17 13 2 10 17
25 33 33 16 8 38 19 49 26 11 6 34 14 50 18 l30 7 -30 7 -30 7 28 11 c16 7 37
12 48 12 23 0 26 18 4 26 -8 4 -15 11 -15 16 0 6 6 8 14 5 8 -3 22 1 33 8 17
14 43 20 43 11z m-1190 -32 c0 -16 -16 -19 -25 -4 -8 13 4 32 16 25 5 -4 9
-13 9 -21z m2615 16 c3 -5 1 -10 -4 -10 -6 0 -11 5 -11 10 0 6 2 10 4 10 3 0
8 -4 11 -10z m-1834 -27 c-12 -20 -14 -14 -5 12 4 9 9 14 11 11 3 -2 0 -13 -6
-23z m-8391 13 c0 -3 -4 -8 -10 -11 -5 -3 -10 -1 -10 4 0 6 5 11 10 11 6 0 10
-2 10 -4z m8295 -23 c-15 -23 -15 -25 -2 -20 20 7 47 -18 47 -43 0 -10 -7 -20
-15 -24 -8 -3 -15 -14 -15 -24 0 -21 -49 -68 -67 -64 -7 2 -13 -4 -13 -12 0
-18 -54 -58 -65 -48 -5 4 -6 -1 -2 -10 7 -20 -16 -31 -32 -15 -7 7 -12 8 -11
2 5 -22 -1 -34 -12 -30 -8 3 -21 -13 -33 -38 -13 -29 -21 -37 -23 -24 -2 9 -7
15 -12 12 -4 -3 -6 -14 -3 -25 6 -23 -6 -26 -26 -7 -11 10 -13 9 -8 -5 4 -12
2 -15 -9 -11 -9 3 -14 -2 -15 -13 -1 -11 -6 -2 -11 19 -6 20 -14 37 -20 37 -5
0 -6 -5 -3 -10 4 -6 4 -18 1 -26 -4 -12 -10 -13 -26 -4 -17 9 -20 8 -20 -8 0
-10 6 -24 13 -32 10 -12 9 -12 -6 0 -15 11 -20 11 -31 -1 -18 -19 -29 -69 -16
-69 14 0 12 -22 -4 -43 -17 -22 -46 -12 -46 15 0 12 -7 26 -16 33 -15 11 -15
14 0 43 9 17 16 47 16 66 0 46 10 72 21 55 5 -9 11 -6 20 13 15 34 44 48 36
18 -3 -11 -1 -18 4 -14 5 3 9 10 9 15 0 13 61 65 73 61 5 -1 11 7 14 18 3 11
9 20 15 20 5 0 28 19 51 43 22 23 45 41 50 39 7 -2 45 15 87 40 8 5 23 11 33
15 10 3 16 11 13 18 -6 16 3 27 39 47 39 23 40 23 20 -9z m-706 -70 c-8 -46
-15 -95 -23 -173 -3 -19 -9 -36 -15 -38 -6 -2 -7 -12 -2 -25 5 -12 4 -49 0
-82 -5 -33 -9 -84 -10 -112 0 -29 -4 -53 -8 -53 -5 0 -7 -24 -6 -52 1 -29 -2
-78 -6 -108 -4 -30 -9 -80 -11 -110 -1 -30 -4 -59 -7 -65 -4 -5 -7 -30 -7 -55
-2 -63 -14 -262 -21 -340 -3 -36 -7 -114 -8 -175 -1 -60 -5 -159 -9 -220 -4
-60 -9 -294 -11 -520 -4 -388 -12 -502 -26 -355 -25 260 -26 568 -4 1080 9
198 13 277 19 325 3 28 10 111 16 185 33 429 80 780 105 780 5 0 4 4 -4 9 -8
5 -10 14 -6 22 5 7 10 30 11 51 2 21 7 44 11 51 4 6 6 23 5 37 -2 23 -1 23 11
8 10 -13 12 -30 6 -65z m-7552 51 c8 -21 -13 -42 -28 -27 -13 13 -5 43 11 43
6 0 13 -7 17 -16z m70 0 c-3 -3 -12 -4 -19 -1 -8 3 -5 6 6 6 11 1 17 -2 13 -5z
m-607 -54 c0 -5 -5 -10 -11 -10 -5 0 -7 5 -4 10 3 6 8 10 11 10 2 0 4 -4 4
-10z m690 -10 c0 -5 -4 -10 -10 -10 -5 0 -10 5 -10 10 0 6 5 10 10 10 6 0 10
-4 10 -10z m10034 -5 c3 -8 1 -15 -4 -15 -6 0 -10 7 -10 15 0 8 2 15 4 15 2 0
6 -7 10 -15z m-10706 -40 c3 -14 -31 -12 -35 1 -2 6 4 10 14 9 10 0 19 -5 21
-10z m10703 -65 l-10 -25 0 27 c-1 14 2 35 6 45 7 17 8 17 11 -2 1 -12 -2 -32
-7 -45z m-10161 16 c0 -2 -7 -6 -15 -10 -8 -3 -15 -1 -15 4 0 6 7 10 15 10 8
0 15 -2 15 -4z m127 -12 c-3 -3 -12 -4 -19 -1 -8 3 -5 6 6 6 11 1 17 -2 13 -5z
m11237 -404 c5 -181 12 -322 31 -655 16 -264 14 -248 45 -620 24 -287 28 -333
41 -450 6 -49 12 -117 14 -150 4 -54 3 -51 -10 25 -8 47 -22 148 -31 225 -22
185 -21 176 -28 290 -4 55 -9 111 -11 125 -8 41 -34 375 -41 522 -4 76 -10
136 -13 134 -3 -2 -6 48 -6 112 0 65 -3 281 -7 482 -3 201 -3 320 2 265 4 -55
10 -192 14 -305z m-11376 369 c-2 -6 -8 -10 -13 -10 -5 0 -11 4 -13 10 -2 6 4
11 13 11 9 0 15 -5 13 -11z m10189 -34 c-4 -8 -2 -17 3 -20 5 -3 12 -27 15
-53 4 -26 11 -60 16 -76 6 -19 5 -33 -2 -42 -7 -9 -7 -19 0 -33 6 -11 11 -51
11 -90 0 -38 4 -71 9 -73 10 -3 23 -121 24 -220 1 -38 5 -68 9 -68 4 0 8 -21
8 -47 0 -27 5 -79 10 -118 5 -38 12 -108 15 -155 4 -47 9 -98 12 -115 3 -16 7
-55 9 -85 1 -30 6 -80 10 -110 4 -30 8 -77 9 -105 2 -46 19 -196 30 -273 8
-54 16 -153 17 -210 0 -29 4 -55 9 -58 4 -2 4 -16 -1 -29 -7 -17 -6 -25 1 -25
8 0 8 -4 0 -14 -9 -10 -8 -16 4 -26 8 -7 15 -20 15 -29 0 -12 -2 -13 -8 -3 -5
7 -8 -8 -8 -35 1 -29 7 -52 15 -59 10 -8 12 -26 9 -65 -3 -30 -2 -64 3 -77 8
-21 6 -23 -13 -20 -20 3 -23 9 -22 51 0 26 -3 47 -7 47 -4 0 -8 12 -8 28 -2
60 -3 68 -8 82 -4 8 -7 29 -8 45 -1 17 -5 59 -9 95 -3 36 -8 96 -12 135 -3 38
-11 73 -17 77 -9 6 -9 8 1 8 7 0 11 4 8 9 -3 5 -8 44 -11 87 -3 44 -10 100
-16 126 -8 34 -7 53 1 69 9 17 9 23 0 29 -13 8 -28 122 -26 193 1 20 -2 37 -6
37 -4 0 -7 28 -7 63 1 34 -6 118 -15 187 -8 69 -15 141 -14 161 0 20 -5 46
-11 58 -7 12 -8 21 -2 21 6 0 6 12 0 32 -5 20 -5 34 0 36 6 2 5 16 -1 35 -6
18 -12 61 -13 97 -1 36 -5 101 -10 145 -4 44 -9 112 -10 151 -1 39 -5 76 -9
82 -4 7 -5 16 -1 21 3 5 0 15 -7 23 -7 7 -12 33 -11 58 2 62 2 60 14 60 6 0 9
-7 6 -15z m-10187 -15 c0 -5 -4 -10 -10 -10 -5 0 -10 5 -10 10 0 6 5 10 10 10
6 0 10 -4 10 -10z m-520 -60 c0 -5 -7 -10 -16 -10 -8 0 -12 5 -9 10 3 6 10 10
16 10 5 0 9 -4 9 -10z m447 -6 c-3 -3 -12 -4 -19 -1 -8 3 -5 6 6 6 11 1 17 -2
13 -5z m88 -13 c3 -10 1 -29 -4 -42 -10 -25 -12 -23 -14 29 -2 35 8 43 18 13z
m-529 -48 c-10 -10 -19 5 -10 18 6 11 8 11 12 0 2 -7 1 -15 -2 -18z m561 -19
c-3 -3 -12 -4 -19 -1 -8 3 -5 6 6 6 11 1 17 -2 13 -5z m11587 -299 c6 -212 27
-542 51 -815 8 -91 19 -226 25 -300 16 -184 66 -659 90 -855 11 -88 23 -180
26 -205 3 -25 7 -61 10 -80 4 -26 2 -31 -5 -19 -19 29 -124 922 -161 1369 -34
410 -70 1231 -50 1140 4 -19 10 -125 14 -235z m-3639 225 c-3 -5 -12 -10 -18
-10 -7 0 -6 4 3 10 19 12 23 12 15 0z m25 -19 c0 -6 -4 -13 -10 -16 -5 -3 -10
1 -10 9 0 9 5 16 10 16 6 0 10 -4 10 -9z m21 -34 c-8 -8 -11 -5 -11 9 0 27 14
41 18 19 2 -9 -1 -22 -7 -28z m-64 1 c-3 -8 -6 -5 -6 6 -1 11 2 17 5 13 3 -3
4 -12 1 -19z m29 -25 c-10 -10 -19 5 -10 18 6 11 8 11 12 0 2 -7 1 -15 -2 -18z
m-8061 8 c-16 -15 -65 -25 -65 -13 0 11 21 19 55 21 12 1 15 -3 10 -8z m100
-11 c3 -5 -1 -10 -10 -10 -9 0 -13 5 -10 10 3 6 8 10 10 10 2 0 7 -4 10 -10z
m7985 -10 c0 -5 -5 -10 -11 -10 -5 0 -7 5 -4 10 3 6 8 10 11 10 2 0 4 -4 4
-10z m-8611 -66 c0 11 4 17 7 13 3 -3 3 -15 -1 -28 -6 -17 -9 -19 -16 -8 -5 8
-8 25 -8 39 1 23 2 23 9 -5 5 -18 8 -23 9 -11z m8418 -6 c-3 -8 -6 -5 -6 6 -1
11 2 17 5 13 3 -3 4 -12 1 -19z m-7837 -3 c0 -8 -4 -15 -10 -15 -5 0 -10 7
-10 15 0 8 5 15 10 15 6 0 10 -7 10 -15z m35 -5 c3 -5 -1 -10 -9 -10 -9 0 -16
5 -16 10 0 6 4 10 9 10 6 0 13 -4 16 -10z m-584 -24 c15 9 10 -2 -6 -16 -13
-10 -15 -9 -14 11 0 13 3 18 6 11 2 -6 9 -10 14 -6z m8389 10 c0 -3 -4 -8 -10
-11 -5 -3 -10 -1 -10 4 0 6 5 11 10 11 6 0 10 -2 10 -4z m330 -16 c0 -5 -5
-10 -11 -10 -5 0 -7 5 -4 10 3 6 8 10 11 10 2 0 4 -4 4 -10z m40 -9 c0 -6 -4
-13 -10 -16 -5 -3 -10 1 -10 9 0 9 5 16 10 16 6 0 10 -4 10 -9z m-8195 -11
c-3 -5 -10 -10 -16 -10 -5 0 -9 5 -9 10 0 6 7 10 16 10 8 0 12 -4 9 -10z m55
-24 c0 -17 -14 -29 -23 -20 -8 8 3 34 14 34 5 0 9 -6 9 -14z m7780 10 c0 -3
-4 -8 -10 -11 -5 -3 -10 -1 -10 4 0 6 5 11 10 11 6 0 10 -2 10 -4z m237 -58
c-3 -7 -5 -2 -5 12 0 14 2 19 5 13 2 -7 2 -19 0 -25z m-8077 12 c0 -5 -4 -10
-10 -10 -5 0 -10 5 -10 10 0 6 5 10 10 10 6 0 10 -4 10 -10z m-40 -29 c0 -11
-4 -23 -10 -26 -6 -4 -10 5 -10 19 0 14 5 26 10 26 6 0 10 -9 10 -19z m7927
-68 c-2 -16 -4 -5 -4 22 0 28 2 40 4 28 2 -13 2 -35 0 -50z m37 32 c-4 -8 -1
-15 5 -15 6 0 11 -11 11 -25 0 -16 -6 -25 -15 -25 -11 0 -15 11 -15 40 0 22 4
40 10 40 5 0 7 -7 4 -15z m46 -59 c-4 -12 -8 -29 -8 -37 2 -35 -3 -59 -12 -59
-5 0 -9 6 -7 13 1 6 -4 11 -10 10 -8 -2 -13 9 -13 28 0 23 4 30 14 26 18 -7
29 32 20 71 l-6 27 16 -28 c10 -19 13 -35 6 -51z m-7950 57 c-1 -5 -8 -19 -16
-33 -8 -14 -13 -17 -10 -7 3 10 6 25 6 33 0 8 5 14 10 14 6 0 10 -3 10 -7z
m7996 -47 c-2 -13 -10 -34 -16 -46 -6 -12 -9 -28 -6 -35 2 -7 -1 -19 -9 -25
-11 -9 -12 -3 -8 32 3 24 9 45 12 48 3 3 6 11 7 18 2 27 4 32 14 32 6 0 8 -11
6 -24z m-249 -8 c-3 -8 -6 -5 -6 6 -1 11 2 17 5 13 3 -3 4 -12 1 -19z m-104
-26 c3 7 6 -4 6 -24 1 -29 4 -36 16 -32 9 4 18 -1 22 -12 3 -11 11 -22 16 -25
11 -8 1 -29 -14 -29 -5 0 -9 5 -9 10 0 6 -12 23 -26 37 -24 24 -54 81 -54 100
1 4 9 -2 19 -15 13 -15 21 -18 24 -10z m2944 -14 c-3 -7 -5 -2 -5 12 0 14 2
19 5 13 2 -7 2 -19 0 -25z m-2721 -73 c-9 -13 -16 -31 -16 -40 0 -8 -4 -15
-10 -15 -16 0 -11 25 10 53 11 14 21 36 21 49 l2 23 4 -23 c3 -13 -3 -34 -11
-47z m-102 40 c-4 -8 -8 -15 -10 -15 -2 0 -4 7 -4 15 0 8 4 15 10 15 5 0 7 -7
4 -15z m78 -9 c7 4 8 2 4 -5 -9 -13 -26 -5 -25 12 0 9 2 8 6 -1 2 -6 10 -9 15
-6z m-268 -4 c2 -4 -5 -9 -17 -9 -17 -2 -19 0 -7 7 18 12 18 12 24 2z m216
-36 c0 -3 -4 -8 -10 -11 -5 -3 -10 -1 -10 4 0 6 5 11 10 11 6 0 10 -2 10 -4z
m100 -12 c0 -8 -5 -12 -10 -9 -6 4 -8 11 -5 16 9 14 15 11 15 -7z m23 -14 c-8
-29 -21 -25 -15 5 2 14 8 23 12 20 5 -3 6 -14 3 -25z m-7926 -12 c-3 -8 -6 -5
-6 6 -1 11 2 17 5 13 3 -3 4 -12 1 -19z m7753 13 c0 -6 -4 -13 -10 -16 -5 -3
-10 1 -10 9 0 9 5 16 10 16 6 0 10 -4 10 -9z m-7785 -51 c0 -7 -10 -14 -22
-15 -16 -1 -23 4 -23 17 0 13 6 17 23 14 12 -1 22 -9 22 -16z m8313 -26 c-7
-15 -14 -21 -16 -15 -2 7 2 18 8 26 18 22 21 18 8 -11z m-8376 -21 c-6 -2 -10
-9 -6 -14 3 -5 0 -9 -5 -9 -12 0 -14 13 -4 23 3 4 11 7 17 6 6 0 5 -3 -2 -6z
m118 -3 c0 -5 -5 -10 -11 -10 -5 0 -7 5 -4 10 3 6 8 10 11 10 2 0 4 -4 4 -10z
m8200 -4 c0 -3 -4 -8 -10 -11 -5 -3 -10 -1 -10 4 0 6 5 11 10 11 6 0 10 -2 10
-4z m4992 -26 c70 -15 99 -26 102 -38 4 -13 66 -424 66 -437 0 -2 60 -22 133
-45 72 -23 135 -45 139 -49 7 -6 55 -356 60 -438 1 -23 0 -45 -4 -48 -3 -3
-41 6 -84 19 -78 25 -207 56 -211 52 -1 -1 16 -39 37 -84 22 -46 40 -85 40
-87 0 -2 22 -50 50 -107 27 -57 52 -116 55 -133 12 -71 44 -560 37 -567 -4 -4
-55 4 -114 18 -127 31 -110 -6 -133 294 -9 114 -21 208 -27 211 -12 8 -131 33
-231 50 -56 9 -68 15 -72 33 -11 50 -46 416 -43 447 3 31 5 34 33 31 73 -7
242 -34 263 -43 14 -6 21 -6 18 0 -4 5 -2 11 3 13 10 3 -83 198 -148 311 -28
49 -33 73 -56 253 -14 109 -31 233 -39 274 -14 83 -12 103 13 96 9 -2 60 -14
113 -26z m-13252 16 c0 -3 -4 -8 -10 -11 -5 -3 -10 -1 -10 4 0 6 5 11 10 11 6
0 10 -2 10 -4z m8112 -98 c-6 -6 -9 2 -7 24 4 51 8 56 12 19 3 -18 0 -38 -5
-43z m-542 47 c7 -9 8 -15 2 -15 -5 0 -12 7 -16 15 -3 8 -4 15 -2 15 2 0 9 -7
16 -15z m-7600 -15 c0 -5 -2 -10 -4 -10 -3 0 -8 5 -11 10 -3 6 -1 10 4 10 6 0
11 -4 11 -10z m-30 -49 c0 -12 -20 -25 -27 -18 -7 7 6 27 18 27 5 0 9 -4 9 -9z
m8001 -18 c-12 -20 -14 -14 -5 12 4 9 9 14 11 11 3 -2 0 -13 -6 -23z m49 7 c0
-5 -5 -10 -11 -10 -5 0 -7 5 -4 10 3 6 8 10 11 10 2 0 4 -4 4 -10z m-8028 -29
c-12 -7 -62 -4 -62 5 0 2 17 4 38 4 23 0 32 -3 24 -9z m8022 -27 c3 -8 2 -12
-4 -9 -6 3 -10 10 -10 16 0 14 7 11 14 -7z m-34 2 c0 -2 -7 -7 -16 -10 -8 -3
-12 -2 -9 4 6 10 25 14 25 6z m-8025 -26 c-3 -5 -10 -10 -16 -10 -5 0 -9 5 -9
10 0 6 7 10 16 10 8 0 12 -4 9 -10z m25 -20 c0 -5 -5 -10 -11 -10 -5 0 -7 5
-4 10 3 6 8 10 11 10 2 0 4 -4 4 -10z m8060 -27 c0 -10 6 -14 19 -10 13 3 21
-1 24 -14 7 -27 26 -24 20 4 l-5 22 20 -22 c11 -12 22 -19 26 -16 3 4 6 1 6
-5 0 -7 7 -12 15 -12 8 0 15 -6 15 -14 0 -8 7 -16 15 -20 14 -5 22 -36 10 -36
-3 0 -24 19 -45 41 -33 35 -42 40 -54 30 -8 -7 -19 -10 -25 -7 -5 4 -12 -2
-14 -11 -3 -11 -5 -8 -6 10 0 15 -6 27 -11 27 -6 0 -10 -6 -9 -12 4 -30 -2
-39 -22 -36 -31 4 -48 34 -30 50 12 11 13 10 8 -4 -3 -9 0 -21 7 -28 11 -8 15
-3 20 23 4 19 3 42 0 52 -5 13 -4 16 4 11 7 -4 12 -14 12 -23z m94 -79 c4 -10
1 -14 -6 -12 -15 5 -23 28 -10 28 5 0 13 -7 16 -16z m-34 -14 c0 -5 -4 -10
-10 -10 -5 0 -10 5 -10 10 0 6 5 10 10 10 6 0 10 -4 10 -10z m-8455 -10 l20
-9 -20 0 c-11 0 -27 4 -35 9 -13 9 -13 10 0 9 8 0 24 -4 35 -9z m8402 -22 c-3
-7 -5 -2 -5 12 0 14 2 19 5 13 2 -7 2 -19 0 -25z m36 1 c4 -3 2 -11 -6 -18
-12 -9 -14 -7 -14 14 0 14 2 22 6 18 3 -4 10 -10 14 -14z m50 -9 c3 -11 1 -20
-4 -20 -5 0 -9 4 -9 9 0 5 -3 17 -7 27 -4 11 -3 15 4 11 6 -4 13 -16 16 -27z
m37 10 c13 -11 19 -20 14 -20 -12 1 -44 25 -44 34 0 10 5 7 30 -14z m-8210
-65 c-7 -8 -17 -15 -22 -15 -6 0 -5 7 2 15 7 8 17 15 22 15 6 0 5 -7 -2 -15z
m8130 5 c0 -5 -2 -10 -4 -10 -3 0 -8 5 -11 10 -3 6 -1 10 4 10 6 0 11 -4 11
-10z m199 -17 c8 -18 9 -29 1 -37 -7 -7 -10 -2 -10 17 0 15 -4 27 -10 27 -5 0
-10 5 -10 10 0 19 17 10 29 -17z m-295 -19 c18 -18 21 -44 5 -44 -5 0 -7 5 -4
10 3 6 1 10 -4 10 -6 0 -11 7 -11 16 0 9 -5 12 -12 8 -7 -4 -8 -3 -4 4 9 15
12 15 30 -4z m266 12 c0 -3 -4 -8 -10 -11 -5 -3 -10 -1 -10 4 0 6 5 11 10 11
6 0 10 -2 10 -4z m-8506 -15 c3 -4 3 -11 0 -14 -8 -8 -34 3 -34 14 0 11 27 12
34 0z m8300 -17 c9 -24 2 -26 -12 -4 -7 11 -8 20 -3 20 5 0 12 -7 15 -16z
m-8360 -13 c38 0 75 -6 82 -12 9 -7 32 -8 64 -4 56 8 66 -1 20 -17 -25 -8 -28
-13 -19 -24 9 -12 8 -18 -7 -28 -22 -17 -36 -12 -27 9 6 18 3 18 -32 5 -19 -7
-33 -6 -48 2 -12 7 -40 18 -62 25 -24 6 -31 11 -19 12 12 1 40 -6 63 -14 30
-10 53 -12 79 -6 36 9 36 9 7 10 -17 1 -35 5 -41 11 -5 5 -37 11 -70 13 -63 4
-84 11 -84 29 0 7 4 7 13 1 6 -6 43 -11 81 -12z m256 -10 l25 -7 -34 -17 c-40
-20 -61 -23 -44 -6 6 6 9 18 6 25 -6 15 7 16 47 5z m7974 -32 c-5 -8 -10 -6
-16 5 -5 9 -6 21 -2 27 5 8 10 6 16 -5 5 -9 6 -21 2 -27z m42 -9 l6 -35 -16
29 c-18 32 -22 66 -6 50 5 -5 12 -25 16 -44z m301 -12 c-3 -7 -5 -2 -5 12 0
14 2 19 5 13 2 -7 2 -19 0 -25z m-8363 -4 c24 -9 10 -22 -19 -17 -13 3 -22 9
-19 14 6 11 16 11 38 3z m-219 -14 c3 -5 -1 -10 -9 -10 -8 0 -18 5 -21 10 -3
6 1 10 9 10 8 0 18 -4 21 -10z m11222 -31 c-3 -11 -1 -17 4 -13 5 3 9 11 9 19
0 17 25 26 38 13 6 -6 31 -10 56 -10 25 1 46 -3 46 -9 0 -6 4 -8 10 -4 5 3 26
-5 47 -18 21 -13 44 -22 51 -20 6 3 12 -3 12 -12 0 -11 6 -15 18 -11 20 7 62
-23 62 -43 0 -6 4 -11 9 -11 5 0 11 -11 13 -25 3 -14 1 -25 -4 -25 -5 0 -6
-10 -3 -21 6 -19 4 -21 -14 -16 -24 6 -29 -8 -6 -17 8 -3 14 -13 14 -23 -1
-16 -2 -16 -6 -1 -2 9 -10 15 -18 12 -8 -4 -15 5 -20 26 -4 17 -13 34 -21 37
-8 3 -11 9 -8 14 3 5 2 9 -3 10 -54 5 -166 38 -173 50 -4 5 -14 7 -24 3 -11
-4 -26 2 -42 16 -17 17 -24 19 -24 9 0 -16 -42 48 -46 70 -4 20 5 33 18 25 5
-3 8 -15 5 -25z m-11277 11 c0 -5 -2 -10 -4 -10 -3 0 -8 5 -11 10 -3 6 -1 10
4 10 6 0 11 -4 11 -10z m330 0 c0 -5 -8 -10 -17 -10 -15 0 -16 2 -3 10 19 12
20 12 20 0z m7616 -29 c3 -14 8 -34 11 -45 3 -12 1 -16 -6 -12 -6 4 -11 2 -11
-3 0 -6 4 -11 10 -11 6 0 9 -33 7 -82 -1 -62 -6 -82 -17 -85 -13 -4 -13 -3 0
7 13 10 13 11 0 7 -9 -2 -14 -14 -13 -31 2 -23 0 -24 -13 -11 -11 11 -14 36
-13 107 2 51 -1 104 -5 117 -7 20 -5 23 8 18 18 -7 20 1 7 36 -8 22 -7 24 10
20 10 -3 22 -17 25 -32z m3291 17 c-3 -8 -6 -5 -6 6 -1 11 2 17 5 13 3 -3 4
-12 1 -19z m-11104 -7 c18 5 44 9 60 9 23 0 26 -2 15 -14 -9 -10 -15 -11 -20
-2 -5 8 -8 7 -8 -3 0 -9 -8 -11 -24 -7 -12 3 -26 3 -29 0 -7 -7 -97 -15 -97
-9 0 11 56 33 64 25 4 -4 22 -4 39 1z m137 -1 c0 -5 -4 -10 -9 -10 -6 0 -13 5
-16 10 -3 6 1 10 9 10 9 0 16 -4 16 -10z m11328 -35 c-3 -3 -9 2 -12 12 -6 14
-5 15 5 6 7 -7 10 -15 7 -18z m-11491 -28 c18 3 31 9 28 13 -3 5 -1 11 5 15 5
3 10 2 10 -4 0 -7 17 -8 45 -4 36 5 46 2 51 -11 4 -10 -1 -25 -12 -38 -19 -21
-19 -21 16 -14 45 8 28 -9 -22 -22 -26 -7 -38 -7 -41 1 -2 7 -9 7 -23 -1 -17
-10 -17 -11 -1 -12 9 0 17 -5 17 -11 0 -9 -37 -4 -49 7 -11 10 12 34 34 34 14
0 25 4 25 9 0 5 9 13 20 16 11 3 20 11 20 17 0 12 -105 2 -132 -13 -19 -10
-50 2 -76 28 -7 7 -20 13 -28 13 -8 0 -14 5 -14 10 0 6 21 0 48 -14 32 -16 57
-22 79 -19z m238 33 c-3 -5 -10 -10 -16 -10 -5 0 -9 5 -9 10 0 6 7 10 16 10 8
0 12 -4 9 -10z m-255 -10 c0 -5 -2 -10 -4 -10 -3 0 -8 5 -11 10 -3 6 -1 10 4
10 6 0 11 -4 11 -10z m220 2 c0 -13 -39 -32 -45 -22 -4 6 4 14 17 19 30 12 28
12 28 3z m8490 -6 c0 -3 -4 -8 -10 -11 -5 -3 -10 -1 -10 4 0 6 5 11 10 11 6 0
10 -2 10 -4z m-200 -51 c0 -16 -6 -25 -15 -25 -8 0 -15 5 -15 11 0 5 5 7 10 4
6 -3 10 3 10 14 0 12 2 21 5 21 3 0 5 -11 5 -25z m170 15 c0 -5 -4 -10 -10
-10 -5 0 -10 5 -10 10 0 6 5 10 10 10 6 0 10 -4 10 -10z m-8632 -9 c11 -7 11
-9 -2 -14 -9 -4 -16 -2 -16 4 0 5 -10 1 -22 -11 -26 -24 -63 -26 -72 -4 -4 9
-4 19 -1 22 3 3 5 0 5 -6 0 -17 49 -15 66 3 18 17 24 18 42 6z m202 -11 c-27
-21 -45 -26 -35 -9 6 9 41 27 55 28 3 0 -6 -8 -20 -19z m8070 -30 c0 -5 -5
-10 -11 -10 -5 0 -7 5 -4 10 3 6 8 10 11 10 2 0 4 -4 4 -10z m-8071 -13 c-14
-11 -88 -34 -84 -26 13 20 -23 8 -37 -12 -13 -21 -15 -21 -43 -6 l-30 16 37 1
c20 0 39 4 43 9 3 5 18 9 33 9 15 0 38 4 52 10 22 8 41 8 29 -1z m11391 -7 c0
-5 -4 -10 -10 -10 -5 0 -10 5 -10 10 0 6 5 10 10 10 6 0 10 -4 10 -10z
m-11625 -20 c22 -11 34 -20 27 -20 -7 0 -10 -4 -7 -10 3 -5 1 -10 -4 -10 -6 0
-11 5 -11 11 0 7 -9 9 -21 6 -16 -4 -18 -3 -9 8 9 11 5 16 -22 24 -21 6 -26
10 -13 10 12 1 38 -8 60 -19z m8365 -5 c0 -14 -2 -25 -4 -25 -2 0 -6 11 -8 25
-3 14 -1 25 3 25 5 0 9 -11 9 -25z m-30 -11 c0 -8 -4 -12 -10 -9 -5 3 -10 13
-10 21 0 8 5 12 10 9 6 -3 10 -13 10 -21z m257 20 c-3 -3 -12 -4 -19 -1 -8 3
-5 6 6 6 11 1 17 -2 13 -5z m-8388 -25 c-8 -5 -27 -8 -44 -7 -27 1 -28 1 -5 5
14 3 29 9 34 13 5 5 13 7 19 3 5 -3 3 -9 -4 -14z m8231 -25 c0 -13 -4 -24 -10
-24 -5 0 -10 6 -10 13 0 6 -3 23 -7 37 -6 22 -5 24 10 11 9 -7 17 -24 17 -37z
m197 4 c-3 -7 -5 -2 -5 12 0 14 2 19 5 13 2 -7 2 -19 0 -25z m-67 2 c0 -5 -5
-10 -11 -10 -5 0 -7 5 -4 10 3 6 8 10 11 10 2 0 4 -4 4 -10z m-8453 -14 c-4
-10 -1 -13 8 -9 8 3 12 9 9 14 -3 5 2 9 11 9 9 0 13 -5 9 -11 -4 -7 0 -9 12
-6 66 19 70 19 51 4 -10 -8 -14 -17 -10 -19 4 -3 2 -3 -6 -1 -7 2 -25 -8 -39
-22 -14 -14 -27 -23 -30 -20 -3 3 3 12 14 19 26 19 10 32 -22 18 -21 -10 -28
-9 -41 4 -14 13 -14 17 -2 25 22 14 42 11 36 -5z m-112 -6 c13 -6 15 -9 5 -9
-8 0 -22 4 -30 9 -18 12 -2 12 25 0z m8350 0 c3 -5 1 -10 -4 -10 -6 0 -11 5
-11 10 0 6 2 10 4 10 3 0 8 -4 11 -10z m3225 6 c0 -3 -4 -8 -10 -11 -5 -3 -10
-1 -10 4 0 6 5 11 10 11 6 0 10 -2 10 -4z m45 -14 c-3 -3 -11 0 -18 7 -9 10
-8 11 6 5 10 -3 15 -9 12 -12z m-3330 -2 c3 -5 1 -10 -4 -10 -6 0 -11 5 -11
10 0 6 2 10 4 10 3 0 8 -4 11 -10z m-8242 -20 c-11 -10 -75 -31 -80 -26 -2 2
10 9 27 16 16 7 30 16 30 21 0 5 7 6 16 2 8 -3 12 -9 7 -13z m8474 -17 c-3
-10 -5 -4 -5 12 0 17 2 24 5 18 2 -7 2 -21 0 -30z m47 -95 c-3 -12 0 -18 10
-18 8 0 18 -9 21 -20 3 -11 13 -20 21 -20 8 0 14 -4 14 -10 0 -16 -18 -12 -40
10 -11 11 -24 20 -29 20 -11 0 -23 29 -16 40 3 5 1 11 -5 15 -5 3 -10 -3 -10
-15 0 -12 -4 -18 -11 -15 -6 4 -8 13 -5 21 3 8 -1 17 -9 20 -24 10 -17 21 10
19 23 -3 25 0 26 43 l1 47 14 -60 c7 -33 11 -68 8 -77z m-240 106 c3 -8 2 -12
-4 -9 -6 3 -10 10 -10 16 0 14 7 11 14 -7z m-8134 -4 c0 -5 -4 -10 -10 -10 -5
0 -10 5 -10 10 0 6 5 10 10 10 6 0 10 -4 10 -10z m13455 -10 c3 -6 -4 -10 -17
-10 -18 0 -20 2 -8 10 19 12 18 12 25 0z m-5145 -16 c0 -8 -4 -12 -10 -9 -5 3
-10 10 -10 16 0 5 5 9 10 9 6 0 10 -7 10 -16z m-8540 -24 c0 -5 -2 -10 -4 -10
-3 0 -8 5 -11 10 -3 6 -1 10 4 10 6 0 11 -4 11 -10z m210 -4 c0 -9 -8 -12 -26
-8 -19 3 -22 7 -12 13 20 13 38 11 38 -5z m40 7 c0 -19 -13 -53 -19 -53 -6 0
-7 48 -2 58 3 6 21 1 21 -5z m-120 -10 c0 -5 -15 -8 -34 -8 -19 0 -32 3 -29 8
2 4 17 7 34 7 16 0 29 -3 29 -7z m8400 -49 c0 -35 -15 -30 -16 6 -1 16 3 27 7
24 5 -3 9 -16 9 -30z m147 4 c-3 -8 -6 -5 -6 6 -1 11 2 17 5 13 3 -3 4 -12 1
-19z m-8557 -8 c-8 -5 -7 -10 4 -19 11 -10 17 -8 30 11 12 17 16 19 16 6 0 -9
6 -18 13 -21 8 -3 6 -7 -7 -12 -11 -5 -37 -1 -65 9 -25 9 -59 16 -76 16 -51 0
-10 15 45 16 28 1 46 -2 40 -6z m8577 -22 c-3 -8 -6 -5 -6 6 -1 11 2 17 5 13
3 -3 4 -12 1 -19z m-8457 8 c0 -3 -4 -8 -10 -11 -5 -3 -10 -1 -10 4 0 6 5 11
10 11 6 0 10 -2 10 -4z m43 -21 c-3 -9 -8 -14 -10 -11 -3 3 -2 9 2 15 9 16 15
13 8 -4z m8287 0 c0 -8 -4 -15 -10 -15 -5 0 -10 7 -10 15 0 8 5 15 10 15 6 0
10 -7 10 -15z m-120 -16 c0 -6 -4 -7 -10 -4 -5 3 -10 11 -10 16 0 6 5 7 10 4
6 -3 10 -11 10 -16z m27 -11 c-3 -7 -5 -2 -5 12 0 14 2 19 5 13 2 -7 2 -19 0
-25z m-8324 8 c17 4 27 2 27 -5 0 -13 -23 -14 -71 -4 -27 5 -30 8 -14 13 11 4
23 3 26 -2 3 -5 18 -6 32 -2z m8588 -63 c14 -26 4 -66 -11 -43 -6 8 -10 25
-10 38 0 13 -6 22 -15 22 -15 0 -21 31 -8 43 6 6 15 -7 44 -60z m9 47 c0 -5
-2 -10 -4 -10 -3 0 -8 5 -11 10 -3 6 -1 10 4 10 6 0 11 -4 11 -10z m-8467 -23
c3 -8 0 -14 -7 -14 -7 0 -13 6 -13 14 0 7 4 13 8 13 4 0 9 -6 12 -13z m-193
-12 c-6 -8 -9 -19 -5 -25 3 -5 0 -10 -9 -10 -23 0 -25 24 -2 36 29 16 30 16
16 -1z m100 -5 c-20 -13 -33 -13 -25 0 3 6 14 10 23 10 15 0 15 -2 2 -10z
m8460 -6 c0 -8 -4 -12 -10 -9 -5 3 -10 10 -10 16 0 5 5 9 10 9 6 0 10 -7 10
-16z m30 5 c0 -6 7 -9 15 -5 10 4 15 -1 15 -14 0 -21 -16 -23 -37 -3 -15 14
-17 33 -3 33 6 0 10 -5 10 -11z m90 -5 c0 -8 -4 -12 -10 -9 -5 3 -10 10 -10
16 0 5 5 9 10 9 6 0 10 -7 10 -16z m250 -13 c0 -6 -4 -13 -10 -16 -5 -3 -10 1
-10 9 0 9 5 16 10 16 6 0 10 -4 10 -9z m-8810 -10 c0 -8 -90 -3 -99 5 -2 2 19
4 47 4 29 0 52 -4 52 -9z m-44 -38 c-10 -10 -19 5 -10 18 6 11 8 11 12 0 2 -7
1 -15 -2 -18z m134 23 c0 -2 -7 -7 -16 -10 -8 -3 -12 -2 -9 4 6 10 25 14 25 6z
m8386 -10 c3 -9 12 -12 21 -9 11 4 14 2 9 -5 -4 -7 -14 -12 -22 -12 -8 0 -14
-6 -15 -12 -1 -15 -17 21 -18 40 -1 17 18 15 25 -2z m-36 -6 c0 -5 -2 -10 -4
-10 -3 0 -8 5 -11 10 -3 6 -1 10 4 10 6 0 11 -4 11 -10z m-8390 -10 c0 -5 -5
-10 -11 -10 -5 0 -7 5 -4 10 3 6 8 10 11 10 2 0 4 -4 4 -10z m50 0 c-8 -5 -19
-10 -25 -10 -5 0 -3 5 5 10 8 5 20 10 25 10 6 0 3 -5 -5 -10z m-110 -10 c-20
-13 -33 -13 -25 0 3 6 14 10 23 10 15 0 15 -2 2 -10z m8428 -10 c15 -1 14 -3
-3 -15 -17 -13 -20 -13 -28 0 -4 8 -5 21 -1 27 6 9 9 9 12 0 2 -7 11 -12 20
-12z m-8591 4 c-3 -3 -12 -4 -19 -1 -8 3 -5 6 6 6 11 1 17 -2 13 -5z m208 -14
c3 -5 -1 -10 -10 -10 -9 0 -13 5 -10 10 3 6 8 10 10 10 2 0 7 -4 10 -10z
m8505 -6 c0 -8 -5 -12 -10 -9 -6 4 -8 11 -5 16 9 14 15 11 15 -7z m-8590 -3
c0 -5 -9 -7 -20 -4 -11 3 -20 7 -20 9 0 2 9 4 20 4 11 0 20 -4 20 -9z m3 -38
c-7 -2 -19 -2 -25 0 -7 3 -2 5 12 5 14 0 19 -2 13 -5z m114 1 c-3 -3 -12 -4
-19 -1 -8 3 -5 6 6 6 11 1 17 -2 13 -5z m-180 -40 c-3 -3 -12 -4 -19 -1 -8 3
-5 6 6 6 11 1 17 -2 13 -5z m56 -28 c-3 -4 -9 -2 -14 5 -13 22 -11 31 5 17 8
-7 12 -17 9 -22z m47 30 c0 -2 -7 -7 -16 -10 -8 -3 -12 -2 -9 4 6 10 25 14 25
6z m8740 -55 c0 -5 -7 -11 -14 -14 -10 -4 -13 -1 -9 9 6 15 23 19 23 5z m2930
-48 c-1 -24 -2 -26 -11 -10 -5 9 -7 22 -4 27 10 17 15 11 15 -17z m-11670 7
c0 -5 -8 -10 -17 -10 -15 0 -16 2 -3 10 19 12 20 12 20 0z m8796 -25 c19 -19
5 -26 -20 -11 -11 8 -36 13 -53 12 -23 -2 -33 2 -33 12 0 11 9 13 47 7 25 -4
52 -13 59 -20z m-8891 -5 c3 -6 -1 -7 -9 -4 -18 7 -21 14 -7 14 6 0 13 -4 16
-10z m8829 -34 c-8 -20 -44 -21 -44 -2 0 8 10 16 23 18 28 5 29 4 21 -16z
m1851 5 c3 -5 1 -12 -5 -16 -6 -4 -8 -10 -5 -15 3 -4 -1 -12 -8 -18 -9 -8 -12
-3 -10 21 1 18 2 33 2 35 2 6 20 1 26 -7z m-3027 -54 c-4 -43 -26 -46 -26 -4
0 23 5 34 15 34 10 0 13 -9 11 -30z m1237 14 c-3 -6 -14 -11 -23 -11 -13 0
-13 2 4 14 21 15 30 14 19 -3z m12 -36 c-9 -8 -22 -15 -29 -15 -7 0 -2 9 12
20 28 21 40 19 17 -5z m1772 -50 c1 6 6 2 12 -8 5 -9 7 -22 4 -28 -4 -5 -1
-16 5 -24 10 -12 9 -15 -4 -15 -11 0 -16 9 -16 30 0 17 -4 30 -10 30 -5 0 -9
15 -9 33 l1 32 8 -30 c4 -16 8 -25 9 -20z m-3013 -2 c-10 -10 -19 5 -10 18 6
11 8 11 12 0 2 -7 1 -15 -2 -18z m3034 -109 c0 -14 -4 -23 -10 -19 -5 3 -10
15 -10 26 0 10 5 19 10 19 6 0 10 -12 10 -26z m-10141 -709 c0 -5 -8 6 -19 25
-11 19 -19 40 -19 45 0 6 8 -6 19 -25 11 -19 19 -39 19 -45z m5538 -849 c-4
-9 3 -18 18 -23 13 -4 47 -30 77 -58 30 -27 80 -72 113 -100 32 -27 69 -61 83
-75 13 -14 28 -24 33 -22 5 1 9 -3 9 -8 0 -6 16 -25 35 -43 19 -17 35 -36 35
-40 0 -10 -41 21 -101 78 -26 24 -58 47 -73 51 -14 3 -49 28 -76 55 -28 27
-55 49 -60 49 -6 0 -10 9 -10 20 0 11 -7 20 -15 20 -8 0 -15 5 -15 10 0 6 -7
10 -15 10 -8 0 -15 5 -15 11 0 7 -11 22 -25 35 -29 26 -32 44 -9 44 10 0 14
-6 11 -14z m-98 -166 c4 0 29 -20 56 -45 27 -24 52 -42 57 -39 5 3 7 2 6 -3
-4 -13 26 -53 40 -53 8 0 10 5 6 13 -4 6 10 -4 32 -23 74 -68 177 -165 198
-189 11 -12 58 -61 104 -107 73 -76 94 -104 76 -104 -6 0 -97 83 -127 117 -11
12 -25 20 -30 16 -6 -3 -7 -1 -4 4 4 6 -8 21 -27 33 -18 13 -43 38 -55 56 -13
18 -32 36 -42 39 -17 6 -23 17 -20 38 0 4 -2 6 -6 6 -22 -4 -35 3 -30 15 4 10
0 12 -14 9 -13 -4 -19 0 -19 11 0 9 -4 16 -8 16 -11 0 -69 49 -134 112 -26 26
-48 45 -48 43 0 -3 -13 9 -29 27 -16 18 -27 37 -23 42 3 5 12 0 20 -12 8 -12
18 -22 21 -22z m546 -230 c8 0 17 -9 20 -20 5 -16 12 -19 27 -14 14 4 18 2 14
-5 -9 -14 15 -39 31 -34 6 2 14 -10 18 -26 6 -27 8 -29 21 -16 19 19 20 19 20
-5 0 -11 -4 -20 -9 -20 -4 0 -5 -5 -2 -10 5 -8 11 -7 21 1 11 9 14 8 14 -5 0
-9 -1 -17 -2 -19 -2 -2 19 -27 47 -56 27 -29 51 -47 53 -41 5 14 -37 60 -55
60 -7 0 -13 8 -13 17 0 13 9 9 37 -18 46 -42 53 -51 47 -61 -3 -5 2 -11 10
-14 9 -3 16 -14 16 -23 0 -19 18 -41 34 -41 5 0 1 9 -9 20 -10 11 -16 23 -12
26 9 9 27 -5 27 -22 0 -8 5 -14 11 -14 6 0 23 -12 38 -27 30 -32 79 -73 85
-73 3 0 31 -28 63 -62 82 -88 116 -118 130 -118 7 0 13 -6 13 -13 0 -17 44
-59 53 -51 4 4 11 -5 17 -20 5 -15 16 -29 24 -32 8 -3 34 -31 57 -61 49 -65
115 -133 129 -133 6 0 10 -6 10 -12 1 -16 105 -128 119 -128 5 0 12 -8 15 -17
3 -10 25 -39 48 -64 24 -25 52 -57 64 -71 12 -14 31 -32 44 -41 20 -14 22 -18
9 -33 -13 -16 -12 -16 10 -4 23 12 24 12 18 -21 -3 -19 -3 -29 -1 -23 7 16 44
5 44 -12 0 -8 5 -14 11 -14 5 0 7 -5 4 -10 -5 -8 -12 -7 -22 2 -14 12 -15 11
-4 -7 8 -13 24 -21 40 -20 16 0 25 -5 23 -13 -1 -7 5 -15 13 -18 25 -10 17
-23 -12 -22 -21 1 -39 14 -70 53 -24 29 -43 58 -43 64 0 7 -4 10 -9 7 -5 -3
-16 5 -24 18 -9 13 -81 90 -161 172 -80 81 -146 151 -146 156 0 4 -7 8 -15 8
-8 0 -15 9 -15 21 0 11 -4 18 -9 15 -10 -7 -57 38 -166 159 -44 48 -113 120
-154 159 -191 182 -621 623 -620 636 0 10 2 11 6 3 2 -7 11 -13 18 -13z m-535
-276 c0 -14 -3 -14 -15 -4 -8 7 -15 14 -15 16 0 2 7 4 15 4 8 0 15 -7 15 -16z
m70 -16 c0 -5 -4 -8 -10 -8 -5 0 -10 10 -10 23 0 18 2 19 10 7 5 -8 10 -18 10
-22z m-150 12 c0 -5 -4 -10 -10 -10 -5 0 -10 5 -10 10 0 6 5 10 10 10 6 0 10
-4 10 -10z m44 -6 c3 -8 2 -12 -4 -9 -6 3 -10 10 -10 16 0 14 7 11 14 -7z
m382 -111 c-12 -12 -29 15 -21 34 7 17 8 16 18 -5 5 -12 7 -25 3 -29z m14434
-47 c0 -2 -9 -6 -20 -9 -11 -3 -20 -1 -20 4 0 5 9 9 20 9 11 0 20 -2 20 -4z
m-120 -46 c0 -5 -10 -10 -22 -9 -22 0 -22 1 -3 9 11 5 21 9 23 9 1 1 2 -3 2
-9z m-13478 -82 c-7 -7 -12 -8 -12 -2 0 14 12 26 19 19 2 -3 -1 -11 -7 -17z
m13288 8 c0 -2 -9 -6 -20 -9 -11 -3 -20 -1 -20 4 0 5 9 9 20 9 11 0 20 -2 20
-4z m-80 -26 c-8 -5 -19 -10 -25 -10 -5 0 -3 5 5 10 8 5 20 10 25 10 6 0 3 -5
-5 -10z m-50 -20 c-8 -5 -19 -10 -25 -10 -5 0 -3 5 5 10 8 5 20 10 25 10 6 0
3 -5 -5 -10z m-60 -18 c0 -4 -13 -13 -30 -19 -16 -6 -30 -8 -30 -4 0 4 12 12
28 18 15 6 28 11 30 12 1 1 2 -3 2 -7z m-13720 -64 c0 -10 -7 -18 -15 -18 -8
0 -15 -4 -15 -10 0 -12 -37 -14 -43 -2 -3 4 -3 19 0 35 4 18 12 27 24 27 11 0
19 5 19 12 0 19 29 -25 30 -44z m13634 28 c-10 -8 -21 -12 -24 -10 -5 6 21 24
34 24 6 0 1 -6 -10 -14z m-13105 -137 c20 -27 21 -29 4 -20 -20 10 -103 96
-103 106 0 11 77 -56 99 -86z m12901 57 c0 -2 -7 -6 -15 -10 -8 -3 -15 -1 -15
4 0 6 7 10 15 10 8 0 15 -2 15 -4z m-6670 -104 c270 -127 598 -188 860 -160
51 6 59 5 35 -3 -16 -6 -77 -14 -135 -19 -58 -4 -125 -13 -150 -20 -48 -13
-151 -8 -226 11 -49 13 -56 23 -21 33 38 12 -62 33 -130 28 -52 -4 -73 1 -175
41 -132 52 -218 93 -218 106 0 5 10 11 22 15 22 5 23 6 3 21 -18 14 -17 14 15
1 19 -7 73 -32 120 -54z m6530 54 c0 -2 -13 -9 -30 -15 -16 -5 -30 -6 -30 -1
0 5 8 11 18 13 24 7 42 8 42 3z m-100 -36 c-8 -5 -19 -10 -25 -10 -5 0 -3 5 5
10 8 5 20 10 25 10 6 0 3 -5 -5 -10z m-40 -9 c0 -5 -15 -15 -32 -22 -18 -7
-36 -14 -40 -17 -5 -2 -8 1 -8 8 0 6 4 9 9 5 5 -3 13 0 16 6 6 8 34 24 53 28
1 1 2 -3 2 -8z m-170 -71 c-8 -5 -19 -10 -25 -10 -5 0 -3 5 5 10 8 5 20 10 25
10 6 0 3 -5 -5 -10z m-60 -19 c0 -5 -9 -11 -20 -14 -11 -3 -20 -1 -20 3 0 5 8
11 18 13 9 3 18 5 20 6 1 0 2 -3 2 -8z m-60 -31 c-24 -15 -37 -11 -16 5 11 8
22 12 25 9 3 -3 -1 -9 -9 -14z m-60 -18 c0 -4 -9 -8 -20 -9 -11 -1 -20 2 -20
8 0 5 9 9 20 9 11 0 20 -4 20 -8z m-80 -32 c-19 -12 -30 -12 -30 -1 0 10 31
20 40 14 2 -2 -2 -8 -10 -13z m-12106 -15 c3 -8 1 -15 -4 -15 -6 0 -10 7 -10
15 0 8 2 15 4 15 2 0 6 -7 10 -15z m12046 -3 c0 -8 -59 -33 -76 -31 -5 0 9 9
31 20 47 22 45 21 45 11z m-12110 -53 c0 -11 -4 -17 -10 -14 -5 3 -10 13 -10
21 0 8 5 14 10 14 6 0 10 -9 10 -21z m11950 -8 c0 -5 -9 -11 -20 -14 -11 -3
-20 -1 -20 3 0 5 8 11 18 13 9 3 18 5 20 6 1 0 2 -3 2 -8z m-50 -21 c0 -5 -10
-10 -22 -10 -19 0 -20 2 -8 10 19 13 30 13 30 0z m-75 -30 c-3 -5 -14 -10 -23
-10 -15 0 -15 2 -2 10 20 13 33 13 25 0z m-65 -19 c0 -5 -9 -11 -20 -14 -22
-6 -28 8 -7 16 19 8 27 8 27 -2z m-70 -29 c0 -4 -29 -17 -65 -28 -36 -12 -65
-18 -65 -13 0 5 8 9 18 9 10 0 28 7 40 16 12 8 22 12 22 9 0 -3 8 -1 18 4 21
12 32 14 32 3z m-11295 -52 c16 -16 26 -32 24 -35 -3 -3 -19 11 -36 30 -38 43
-28 47 12 5z m11145 -4 c0 -2 -7 -6 -15 -10 -8 -3 -15 -1 -15 4 0 6 7 10 15
10 8 0 15 -2 15 -4z m-60 -25 c0 -5 -9 -11 -20 -14 -22 -6 -28 8 -7 16 19 8
27 8 27 -2z m-70 -26 c-30 -17 -40 -18 -40 -6 0 10 22 18 50 19 8 1 4 -5 -10
-13z m-70 -24 c0 -5 -9 -11 -20 -14 -22 -6 -28 8 -7 16 19 8 27 8 27 -2z m-50
-17 c0 -8 -4 -13 -9 -9 -5 3 -12 1 -16 -5 -8 -13 -35 -13 -35 1 0 5 4 8 9 5 4
-3 17 1 27 9 24 18 24 18 24 -1z m-100 -44 c-19 -12 -30 -12 -30 -1 0 10 31
20 40 14 2 -2 -2 -8 -10 -13z m-50 -20 c-8 -6 -24 -9 -35 -9 -15 0 -13 4 10
14 32 14 49 10 25 -5z m-80 -25 c-33 -19 -49 -19 -24 0 10 8 26 14 34 14 9 0
4 -6 -10 -14z m-80 -35 c-24 -15 -36 -11 -14 4 10 8 21 12 24 10 2 -3 -2 -9
-10 -14z m-60 -19 c0 -5 -9 -11 -20 -14 -22 -6 -28 8 -7 16 19 8 27 8 27 -2z
m-109 -42 c-24 -11 -46 -17 -48 -15 -8 7 50 35 72 35 12 0 3 -8 -24 -20z m-82
-32 c-21 -14 -79 -35 -79 -28 0 10 72 42 79 35 2 -2 2 -5 0 -7z m-179 -66 c0
-5 -9 -11 -20 -14 -22 -6 -28 8 -7 16 19 8 27 8 27 -2z m-80 -31 c-8 -5 -19
-10 -25 -10 -5 0 -3 5 5 10 8 5 20 10 25 10 6 0 3 -5 -5 -10z m-60 -20 c0 -5
-5 -10 -11 -10 -5 0 -7 5 -4 10 3 6 8 10 11 10 2 0 4 -4 4 -10z m-32 -16 c-4
-3 -12 -7 -20 -8 -7 -1 -23 -8 -35 -14 -13 -7 -23 -9 -23 -3 0 9 72 42 79 35
2 -2 2 -7 -1 -10z m-118 -44 c-19 -12 -30 -12 -30 -1 0 10 31 20 40 14 2 -2
-2 -8 -10 -13z m-70 -30 c-8 -5 -17 -7 -19 -4 -3 3 1 9 9 14 8 5 17 7 19 4 3
-3 -1 -9 -9 -14z m-140 -50 c-8 -5 -19 -10 -25 -10 -5 0 -3 5 5 10 8 5 20 10
25 10 6 0 3 -5 -5 -10z m-60 -20 c0 -5 -5 -10 -11 -10 -5 0 -7 5 -4 10 3 6 8
10 11 10 2 0 4 -4 4 -10z m-90 -29 c0 -5 -10 -11 -22 -14 -22 -6 -22 -6 -4 8
23 17 26 18 26 6z m-95 -45 c-16 -7 -32 -11 -35 -9 -8 7 24 23 45 22 15 0 13
-3 -10 -13z m-70 -26 c-3 -5 -14 -10 -23 -10 -15 0 -15 2 -2 10 20 13 33 13
25 0z m-55 -14 c0 -2 -7 -7 -16 -10 -8 -3 -12 -2 -9 4 6 10 25 14 25 6z m-240
-96 c0 -5 -10 -10 -22 -10 -19 0 -20 2 -8 10 19 13 30 13 30 0z m-167 -67 c-7
-2 -19 -2 -25 0 -7 3 -2 5 12 5 14 0 19 -2 13 -5z m-293 -103 c0 -5 -5 -10
-11 -10 -5 0 -7 5 -4 10 3 6 8 10 11 10 2 0 4 -4 4 -10z m-13657 -1567 c51
-54 184 -192 297 -306 113 -115 207 -212 208 -218 11 -30 -35 12 -214 194
-247 252 -407 427 -389 427 4 0 48 -44 98 -97z"/>
<path d="M21070 20180 c0 -10 26 -20 51 -20 31 0 11 25 -21 26 -17 1 -30 -2
-30 -6z"/>
<path d="M9235 17660 c-7 -12 2 -12 30 0 19 8 19 9 -2 9 -12 1 -25 -3 -28 -9z"/>
<path d="M9082 17568 c7 -19 38 -22 38 -4 0 10 -9 16 -21 16 -12 0 -19 -5 -17
-12z"/>
<path d="M9136 17572 c-3 -5 6 -15 20 -22 19 -11 27 -11 36 -2 9 9 7 12 -8 12
-11 0 -25 5 -31 11 -6 6 -13 7 -17 1z"/>
<path d="M9030 17535 c0 -16 16 -20 24 -6 3 5 -1 11 -9 15 -9 3 -15 0 -15 -9z"/>
<path d="M9024 17494 c3 -9 6 -20 6 -25 0 -6 9 -5 21 1 16 9 18 14 8 26 -16
19 -43 18 -35 -2z"/>
<path d="M9090 17501 c0 -5 7 -11 15 -15 8 -3 15 -12 15 -21 0 -21 13 -19 28
5 11 17 10 20 -7 20 -11 0 -23 5 -26 10 -8 12 -25 13 -25 1z"/>
<path d="M9225 17480 l-30 -7 30 -7 c17 -4 38 -11 47 -16 10 -6 24 -7 33 -4
13 5 10 10 -15 25 -17 11 -31 18 -33 18 -1 -1 -15 -5 -32 -9z"/>
<path d="M9155 17461 c-6 -11 9 -23 19 -14 9 9 7 23 -3 23 -6 0 -12 -4 -16 -9z"/>
<path d="M9086 17451 c-3 -5 1 -11 9 -14 9 -4 12 -1 8 9 -6 16 -10 17 -17 5z"/>
<path d="M9010 17430 c0 -5 5 -10 10 -10 6 0 10 5 10 10 0 6 -4 10 -10 10 -5
0 -10 -4 -10 -10z"/>
<path d="M9304 17428 c-3 -4 4 -8 15 -8 11 0 22 4 26 9 3 6 -4 9 -16 8 -11 -1
-23 -5 -25 -9z"/>
<path d="M9142 17418 c5 -16 58 -23 58 -9 0 6 -6 8 -14 5 -8 -3 -17 -1 -21 5
-9 15 -28 14 -23 -1z"/>
<path d="M8946 17407 c3 -10 9 -15 12 -12 3 3 0 11 -7 18 -10 9 -11 8 -5 -6z"/>
<path d="M9040 17375 c0 -9 5 -15 11 -13 6 2 11 8 11 13 0 5 -5 11 -11 13 -6
2 -11 -4 -11 -13z"/>
<path d="M9190 17381 c0 -14 18 -23 31 -15 8 4 7 9 -2 15 -18 11 -29 11 -29 0z"/>
<path d="M9010 17370 c0 -5 5 -10 10 -10 6 0 10 5 10 10 0 6 -4 10 -10 10 -5
0 -10 -4 -10 -10z"/>
<path d="M8943 17362 c-6 -5 -5 -15 2 -28 l11 -22 11 24 c11 24 -3 40 -24 26z"/>
<path d="M9116 17357 c3 -10 9 -15 12 -12 3 3 0 11 -7 18 -10 9 -11 8 -5 -6z"/>
<path d="M9297 17359 c-9 -6 -27 -7 -40 -4 -21 6 -22 6 -2 -10 13 -10 29 -13
52 -9 21 4 33 2 33 -5 0 -6 -15 -11 -32 -11 -42 0 -75 -19 -38 -21 82 -5 85
-4 84 14 -1 9 1 17 4 17 2 0 11 -8 18 -17 13 -17 15 -16 33 7 l20 25 -44 3
c-25 2 -45 7 -45 13 0 12 -20 11 -43 -2z"/>
<path d="M9078 17338 c9 -9 15 -9 24 0 9 9 7 12 -12 12 -19 0 -21 -3 -12 -12z"/>
<path d="M8986 17331 c-3 -5 8 -14 26 -20 43 -15 47 -13 19 9 -26 22 -37 25
-45 11z"/>
<path d="M9197 17329 c7 -7 15 -10 18 -7 3 3 -2 9 -12 12 -14 6 -15 5 -6 -5z"/>
<path d="M9100 17290 c-12 -8 -9 -10 13 -10 16 0 26 4 22 10 -8 12 -16 12 -35
0z"/>
<path d="M9200 17290 c-24 -8 -23 -8 8 -9 20 -1 31 3 27 9 -3 6 -7 10 -8 9 -1
-1 -13 -5 -27 -9z"/>
<path d="M9045 17260 c3 -5 10 -10 16 -10 5 0 9 5 9 10 0 6 -7 10 -16 10 -8 0
-12 -4 -9 -10z"/>
<path d="M9214 17235 c16 -16 66 -21 66 -6 0 5 -8 7 -19 4 -10 -3 -22 0 -25 6
-4 6 -14 11 -22 11 -14 0 -14 -2 0 -15z"/>
<path d="M8990 17210 c0 -6 7 -10 15 -10 8 0 15 2 15 4 0 2 -7 6 -15 10 -8 3
-15 1 -15 -4z"/>
<path d="M9270 17210 c-12 -8 -11 -10 8 -10 12 0 22 5 22 10 0 13 -11 13 -30
0z"/>
<path d="M9199 17197 c15 -19 41 -23 41 -7 0 6 -4 10 -9 10 -5 0 -18 3 -28 7
-16 6 -16 5 -4 -10z"/>
<path d="M8916 17135 c-3 -8 -1 -15 5 -15 6 0 7 -5 4 -10 -6 -10 22 -26 31
-18 6 7 -17 58 -27 58 -4 0 -9 -7 -13 -15z"/>
<path d="M8993 17117 c16 -6 25 -17 23 -24 -7 -17 13 -28 27 -14 8 8 8 11 -2
11 -7 0 -11 6 -8 14 4 9 -3 16 -16 20 -37 10 -54 5 -24 -7z"/>
<path d="M9068 17123 c7 -3 16 -2 19 1 4 3 -2 6 -13 5 -11 0 -14 -3 -6 -6z"/>
<path d="M9103 17112 c-25 -4 -32 -22 -9 -22 8 0 17 -6 19 -12 3 -7 6 -2 7 12
1 23 2 23 10 5 7 -16 9 -17 9 -3 1 21 -7 25 -36 20z"/>
<path d="M9265 17110 c4 -6 11 -8 16 -5 14 9 11 15 -7 15 -8 0 -12 -5 -9 -10z"/>
<path d="M9218 17083 c7 -3 16 -2 19 1 4 3 -2 6 -13 5 -11 0 -14 -3 -6 -6z"/>
<path d="M9057 17064 c-8 -8 1 -24 14 -24 5 0 9 7 9 15 0 15 -12 20 -23 9z"/>
<path d="M9181 17061 c-8 -6 -9 -11 -3 -15 6 -3 14 -1 17 5 9 14 2 20 -14 10z"/>
<path d="M9250 17050 c0 -5 7 -10 15 -10 8 0 15 5 15 10 0 6 -7 10 -15 10 -8
0 -15 -4 -15 -10z"/>
<path d="M9148 17033 c7 -3 16 -2 19 1 4 3 -2 6 -13 5 -11 0 -14 -3 -6 -6z"/>
<path d="M9205 17020 c3 -5 -3 -10 -14 -10 -11 0 -23 -4 -26 -10 -8 -13 21
-13 46 0 23 13 25 30 3 30 -8 0 -12 -4 -9 -10z"/>
<path d="M9322 17008 c3 -7 13 -15 24 -17 16 -3 17 -1 5 13 -16 19 -34 21 -29
4z"/>
<path d="M9015 17000 c3 -5 10 -10 16 -10 5 0 9 5 9 10 0 6 -7 10 -16 10 -8 0
-12 -4 -9 -10z"/>
<path d="M9205 16970 c-3 -6 1 -7 9 -4 18 7 21 14 7 14 -6 0 -13 -4 -16 -10z"/>
<path d="M9258 16963 c7 -3 16 -2 19 1 4 3 -2 6 -13 5 -11 0 -14 -3 -6 -6z"/>
<path d="M9120 16950 c0 -5 12 -10 28 -9 24 0 25 1 7 9 -27 12 -35 12 -35 0z"/>
<path d="M9056 16911 c-19 -7 -18 -8 4 -14 26 -7 43 0 35 14 -7 10 -13 10 -39
0z"/>
<path d="M9190 16910 c0 -13 18 -22 24 -11 3 5 -1 11 -9 15 -8 3 -15 1 -15 -4z"/>
<path d="M9016 16861 c10 -10 21 -14 23 -8 4 10 -17 27 -33 27 -5 0 -1 -8 10
-19z"/>
<path d="M9235 16870 c4 -6 11 -8 16 -5 14 9 11 15 -7 15 -8 0 -12 -5 -9 -10z"/>
<path d="M9148 16863 c7 -3 16 -2 19 1 4 3 -2 6 -13 5 -11 0 -14 -3 -6 -6z"/>
<path d="M8950 16844 c0 -2 9 -8 20 -14 11 -6 20 -7 20 -2 0 6 -9 12 -20 15
-11 3 -20 3 -20 1z"/>
<path d="M9265 16810 c-7 -12 2 -12 30 0 19 8 19 9 -2 9 -12 1 -25 -3 -28 -9z"/>
<path d="M9178 16801 c-12 -4 -15 -10 -8 -20 6 -11 14 -12 30 -5 18 8 20 12 9
21 -8 6 -22 8 -31 4z"/>
<path d="M9240 16770 c0 -5 5 -10 10 -10 6 0 10 5 10 10 0 6 -4 10 -10 10 -5
0 -10 -4 -10 -10z"/>
<path d="M9128 16753 c7 -3 16 -2 19 1 4 3 -2 6 -13 5 -11 0 -14 -3 -6 -6z"/>
<path d="M8980 16732 c0 -12 19 -26 26 -19 2 2 -2 10 -11 17 -9 8 -15 8 -15 2z"/>
<path d="M9118 16673 c7 -3 16 -2 19 1 4 3 -2 6 -13 5 -11 0 -14 -3 -6 -6z"/>
<path d="M9180 16670 c-9 -6 -10 -10 -3 -10 6 0 15 5 18 10 8 12 4 12 -15 0z"/>
<path d="M8931 16644 c0 -11 3 -14 6 -6 3 7 2 16 -1 19 -3 4 -6 -2 -5 -13z"/>
<path d="M9335 16650 c-3 -5 1 -10 9 -10 9 0 16 5 16 10 0 6 -4 10 -9 10 -6 0
-13 -4 -16 -10z"/>
<path d="M9260 16640 c0 -5 5 -10 10 -10 6 0 10 5 10 10 0 6 -4 10 -10 10 -5
0 -10 -4 -10 -10z"/>
<path d="M9140 16630 c0 -5 5 -10 10 -10 6 0 10 5 10 10 0 6 -4 10 -10 10 -5
0 -10 -4 -10 -10z"/>
<path d="M8960 16611 c0 -12 39 -25 48 -16 7 7 -17 25 -35 25 -7 0 -13 -4 -13
-9z"/>
<path d="M9155 16573 c-20 -16 -16 -15 29 3 8 3 16 -1 18 -11 3 -16 5 -15 28
3 l25 21 -40 -1 c-23 0 -50 -7 -60 -15z"/>
<path d="M9050 16540 c-13 -8 -13 -10 2 -10 9 0 20 5 23 10 8 13 -5 13 -25 0z"/>
<path d="M9270 16530 c-9 -6 -10 -10 -3 -10 6 0 15 5 18 10 8 12 4 12 -15 0z"/>
<path d="M8945 16511 c-3 -5 -1 -12 5 -16 5 -3 10 1 10 9 0 18 -6 21 -15 7z"/>
<path d="M9160 16490 c0 -5 5 -10 10 -10 6 0 10 5 10 10 0 6 -4 10 -10 10 -5
0 -10 -4 -10 -10z"/>
<path d="M9221 16470 c-22 -19 -22 -20 -3 -20 12 0 24 5 27 10 5 8 11 8 20 0
11 -9 12 -7 8 9 -7 26 -21 26 -52 1z"/>
<path d="M8994 16465 c11 -8 22 -12 25 -9 6 6 -19 24 -34 24 -5 -1 -1 -7 9
-15z"/>
<path d="M9166 16415 c-16 -12 -17 -15 -4 -15 9 0 18 7 22 15 7 18 6 18 -18 0z"/>
<path d="M9040 16398 c0 -20 25 -24 36 -6 5 7 3 8 -6 3 -7 -4 -16 -2 -21 6 -7
11 -9 10 -9 -3z"/>
<path d="M9312 16388 c-18 -18 -15 -27 8 -21 11 3 20 12 20 19 0 17 -12 18
-28 2z"/>
<path d="M9194 16375 c-9 -21 -2 -26 13 -10 8 9 9 16 3 20 -6 3 -13 -1 -16
-10z"/>
<path d="M9005 16360 c3 -5 13 -10 21 -10 8 0 12 5 9 10 -3 6 -13 10 -21 10
-8 0 -12 -4 -9 -10z"/>
<path d="M9112 16351 c-11 -7 -11 -9 1 -14 9 -3 18 1 21 9 6 16 -2 18 -22 5z"/>
<path d="M9237 16349 c-9 -6 -15 -14 -12 -20 4 -5 1 -9 -6 -9 -7 0 -10 -3 -6
-6 3 -3 17 2 31 13 38 27 33 45 -7 22z"/>
<path d="M9037 16319 c7 -7 15 -10 18 -7 3 3 -2 9 -12 12 -14 6 -15 5 -6 -5z"/>
<path d="M9285 16320 c-3 -6 1 -7 9 -4 18 7 21 14 7 14 -6 0 -13 -4 -16 -10z"/>
<path d="M9080 16290 c0 -5 7 -10 16 -10 8 0 12 5 9 10 -3 6 -10 10 -16 10 -5
0 -9 -4 -9 -10z"/>
<path d="M9320 16284 c0 -8 5 -12 10 -9 6 4 8 11 5 16 -9 14 -15 11 -15 -7z"/>
<path d="M9210 16243 c-13 -15 -12 -16 4 -10 10 4 20 7 22 7 2 0 4 5 4 10 0
15 -13 12 -30 -7z"/>
<path d="M8965 16240 c3 -5 12 -7 20 -3 21 7 19 13 -6 13 -11 0 -18 -4 -14
-10z"/>
<path d="M9256 16225 c-9 -9 -16 -22 -16 -28 0 -6 10 -2 22 11 12 12 19 24 16
27 -3 3 -13 -1 -22 -10z"/>
<path d="M9002 16179 c2 -12 9 -24 17 -27 8 -3 11 0 7 6 -3 6 -2 12 4 14 6 2
1 9 -11 16 -19 12 -20 11 -17 -9z"/>
<path d="M9125 16190 c3 -5 10 -10 16 -10 5 0 9 5 9 10 0 6 -7 10 -16 10 -8 0
-12 -4 -9 -10z"/>
<path d="M9170 16170 c0 -5 4 -10 9 -10 6 0 13 5 16 10 3 6 -1 10 -9 10 -9 0
-16 -4 -16 -10z"/>
<path d="M8972 16148 c15 -23 64 -33 74 -16 3 4 -9 8 -25 8 -17 0 -31 4 -31 9
0 5 -7 12 -16 15 -15 6 -15 4 -2 -16z"/>
<path d="M9068 16163 c7 -3 16 -2 19 1 4 3 -2 6 -13 5 -11 0 -14 -3 -6 -6z"/>
<path d="M9205 16159 c-11 -17 -2 -18 19 -3 17 12 17 14 4 14 -9 0 -20 -5 -23
-11z"/>
<path d="M9242 16133 c-21 -24 -26 -25 -58 -15 -40 12 -55 0 -19 -16 30 -14
95 2 95 23 0 8 5 15 10 15 6 0 10 5 10 10 0 17 -14 11 -38 -17z"/>
<path d="M9065 16100 c-3 -5 -2 -10 4 -10 5 0 13 5 16 10 3 6 2 10 -4 10 -5 0
-13 -4 -16 -10z"/>
<path d="M9105 16040 c3 -5 11 -10 16 -10 6 0 7 5 4 10 -3 6 -11 10 -16 10 -6
0 -7 -4 -4 -10z"/>
<path d="M9060 16020 c0 -5 4 -10 9 -10 6 0 13 5 16 10 3 6 -1 10 -9 10 -9 0
-16 -4 -16 -10z"/>
<path d="M9020 16000 c0 -5 7 -10 16 -10 8 0 12 5 9 10 -3 6 -10 10 -16 10 -5
0 -9 -4 -9 -10z"/>
<path d="M9095 15990 c4 -6 11 -8 16 -5 14 9 11 15 -7 15 -8 0 -12 -5 -9 -10z"/>
<path d="M8988 15973 c7 -3 16 -2 19 1 4 3 -2 6 -13 5 -11 0 -14 -3 -6 -6z"/>
<path d="M9157 15973 c-4 -3 -7 -11 -7 -17 0 -6 5 -5 12 2 6 6 9 14 7 17 -3 3
-9 2 -12 -2z"/>
<path d="M9277 15960 c-10 -11 -31 -23 -47 -27 -17 -3 -30 -9 -30 -14 0 -15
47 -10 60 6 7 8 18 15 26 15 17 0 28 20 17 31 -5 5 -16 1 -26 -11z"/>
<path d="M9008 15933 c7 -3 16 -2 19 1 4 3 -2 6 -13 5 -11 0 -14 -3 -6 -6z"/>
<path d="M9045 15910 c3 -5 8 -10 11 -10 2 0 4 5 4 10 0 6 -5 10 -11 10 -5 0
-7 -4 -4 -10z"/>
<path d="M9168 15913 c10 -4 9 -8 -5 -19 -14 -11 -15 -13 -3 -14 23 0 43 16
36 29 -4 6 -15 11 -24 10 -11 0 -13 -2 -4 -6z"/>
<path d="M9078 15893 c6 -2 18 -2 25 0 6 3 1 5 -13 5 -14 0 -19 -2 -12 -5z"/>
<path d="M9210 15880 c-13 -9 -13 -10 0 -10 8 0 22 5 30 10 13 9 13 10 0 10
-8 0 -22 -5 -30 -10z"/>
<path d="M9045 15860 c-4 -6 1 -12 9 -15 9 -3 23 -7 31 -10 25 -7 17 11 -10
23 -15 7 -26 8 -30 2z"/>
<path d="M9207 15843 c-9 -2 -14 -9 -11 -15 5 -7 -1 -9 -16 -5 -24 6 -58 -17
-40 -28 13 -8 92 29 83 40 -5 4 0 5 9 2 10 -3 20 -2 23 3 6 10 -16 11 -48 3z"/>
<path d="M9000 15830 c-18 -12 -2 -12 25 0 13 6 15 9 5 9 -8 0 -22 -4 -30 -9z"/>
<path d="M9030 15799 c0 -11 6 -19 13 -19 17 0 56 29 42 31 -46 7 -55 5 -55
-12z"/>
<path d="M9085 15770 c-8 -13 15 -13 35 0 12 8 11 10 -7 10 -12 0 -25 -4 -28
-10z"/>
<path d="M9150 15760 c-8 -5 -12 -12 -9 -15 4 -3 12 1 19 10 14 17 11 19 -10
5z"/>
<path d="M9077 15703 c-14 -13 -6 -22 24 -28 20 -5 35 -3 42 5 9 10 7 12 -10
7 -15 -3 -20 -1 -16 9 5 14 -27 20 -40 7z"/>
<path d="M9158 15663 c-24 -6 -23 -23 2 -23 11 0 20 7 20 15 0 8 -1 14 -2 14
-2 -1 -11 -3 -20 -6z"/>
<path d="M9205 15660 c-3 -5 1 -10 9 -10 9 0 16 5 16 10 0 6 -4 10 -9 10 -6 0
-13 -4 -16 -10z"/>
<path d="M17975 16660 c-3 -5 -1 -10 4 -10 6 0 11 5 11 10 0 6 -2 10 -4 10 -3
0 -8 -4 -11 -10z"/>
<path d="M17841 16473 c0 -29 2 -33 8 -18 7 18 4 55 -5 55 -2 0 -4 -17 -3 -37z"/>
<path d="M17875 16470 c4 -6 11 -8 16 -5 14 9 11 15 -7 15 -8 0 -12 -5 -9 -10z"/>
<path d="M17770 16441 c0 -6 5 -13 10 -16 6 -3 10 1 10 9 0 9 -4 16 -10 16 -5
0 -10 -4 -10 -9z"/>
<path d="M17807 16389 c-4 -35 -13 -56 -29 -69 -13 -10 -20 -21 -17 -25 4 -3
14 1 22 10 22 22 30 19 23 -10 -4 -14 -2 -25 3 -25 8 0 16 16 31 70 7 24 8 24
9 3 1 -28 12 -29 29 -3 7 11 19 20 26 20 8 0 18 4 21 10 4 6 -1 7 -11 3 -14
-5 -16 -3 -11 11 6 15 3 17 -13 13 -22 -6 -26 3 -8 21 6 6 9 15 5 18 -9 9 -48
-26 -42 -37 3 -4 1 -10 -5 -14 -6 -4 -10 4 -10 19 0 47 -17 36 -23 -15z"/>
<path d="M17650 16391 c0 -17 18 -21 24 -6 3 9 0 15 -9 15 -8 0 -15 -4 -15 -9z"/>
<path d="M17947 16347 c-7 -25 -37 -39 -37 -17 0 6 -5 10 -11 10 -8 0 -8 -5 1
-15 7 -8 18 -15 26 -15 16 0 37 36 31 53 -2 7 -7 0 -10 -16z"/>
<path d="M17571 16294 c0 -11 3 -14 6 -6 3 7 2 16 -1 19 -3 4 -6 -2 -5 -13z"/>
<path d="M17840 16276 c0 -9 5 -16 10 -16 6 0 10 4 10 9 0 6 -4 13 -10 16 -5
3 -10 -1 -10 -9z"/>
<path d="M17920 16285 c0 -18 19 -40 26 -32 4 4 0 15 -9 24 -9 10 -17 13 -17
8z"/>
<path d="M17712 16260 c-7 -11 -8 -20 -3 -20 9 0 24 30 18 36 -1 2 -8 -6 -15
-16z"/>
<path d="M17639 16264 c-1 -5 -1 -12 0 -16 0 -5 -3 -8 -9 -8 -5 0 -10 -4 -10
-10 0 -5 4 -10 9 -10 12 0 25 39 17 47 -3 4 -7 2 -7 -3z"/>
<path d="M17877 16246 c-4 -10 -1 -13 9 -9 7 3 14 9 14 14 0 14 -17 10 -23 -5z"/>
<path d="M17585 16240 c-3 -5 -1 -10 4 -10 6 0 11 5 11 10 0 6 -2 10 -4 10 -3
0 -8 -4 -11 -10z"/>
<path d="M17840 16239 c0 -5 5 -7 10 -4 6 3 10 8 10 11 0 2 -4 4 -10 4 -5 0
-10 -5 -10 -11z"/>
<path d="M17490 16230 c0 -5 7 -10 16 -10 8 0 12 5 9 10 -3 6 -10 10 -16 10
-5 0 -9 -4 -9 -10z"/>
<path d="M17541 16228 c0 -9 -7 -18 -13 -21 -7 -2 -10 -8 -5 -12 11 -13 29 11
24 31 -4 16 -5 16 -6 2z"/>
<path d="M17816 16214 c5 -18 1 -29 -12 -39 -18 -13 -17 -14 10 -15 27 0 28 2
22 31 -3 17 -6 35 -6 40 0 5 -5 9 -10 9 -6 0 -8 -11 -4 -26z"/>
<path d="M17950 16200 c0 -11 -6 -20 -12 -20 -10 0 -9 -3 1 -9 10 -7 10 -10 1
-13 -10 -3 -9 -12 4 -36 17 -33 30 -44 20 -17 -4 10 0 15 11 15 15 0 17 6 11
42 -4 22 -9 45 -12 50 -10 15 -24 8 -24 -12z"/>
<path d="M17631 16184 c0 -11 3 -14 6 -6 3 7 2 16 -1 19 -3 4 -6 -2 -5 -13z"/>
<path d="M17666 16173 c-6 -14 -5 -15 5 -6 7 7 10 15 7 18 -3 3 -9 -2 -12 -12z"/>
<path d="M17551 16171 c-8 -6 -9 -11 -3 -15 6 -3 14 -1 17 5 9 14 2 20 -14 10z"/>
<path d="M17596 16158 c-3 -13 -1 -27 4 -32 7 -7 10 1 10 22 0 37 -5 41 -14
10z"/>
<path d="M17767 16143 c-11 -10 -8 -33 4 -33 5 0 7 5 4 10 -3 6 1 10 9 10 9 0
16 5 16 10 0 11 -23 14 -33 3z"/>
<path d="M17671 15953 c-1 -18 19 -27 32 -13 9 10 8 12 -5 7 -9 -3 -19 -1 -22
6 -3 9 -5 9 -5 0z"/>
<path d="M17627 15893 c-4 -3 -7 -11 -7 -17 0 -6 5 -5 12 2 6 6 9 14 7 17 -3
3 -9 2 -12 -2z"/>
<path d="M17973 15857 c6 -15 3 -17 -13 -12 -18 6 -20 3 -14 -19 5 -20 2 -26
-10 -26 -12 0 -16 -9 -16 -34 0 -21 -6 -36 -15 -40 -8 -3 -15 -15 -15 -26 0
-11 -4 -20 -9 -20 -5 0 -7 -9 -4 -20 8 -28 22 -25 29 8 9 43 12 49 13 25 1
-28 19 -40 27 -18 4 9 13 14 20 11 10 -4 14 2 14 19 0 13 4 26 8 29 14 8 13
79 -1 88 -9 6 -9 10 -1 16 9 5 7 11 -4 22 -14 13 -15 12 -9 -3z"/>
<path d="M17615 15780 c3 -5 11 -10 16 -10 6 0 7 5 4 10 -3 6 -11 10 -16 10
-6 0 -7 -4 -4 -10z"/>
<path d="M17554 15727 c3 -10 6 -21 6 -23 0 -2 10 -4 23 -3 14 0 17 2 7 6 -8
3 -21 13 -29 22 -12 15 -13 14 -7 -2z"/>
<path d="M17611 15714 c0 -11 3 -14 6 -6 3 7 2 16 -1 19 -3 4 -6 -2 -5 -13z"/>
<path d="M17837 15653 c-4 -3 -7 -17 -7 -30 0 -12 -4 -23 -10 -23 -5 0 -10 7
-10 16 0 8 -5 12 -11 8 -8 -4 -8 -9 0 -17 6 -6 11 -20 12 -31 0 -15 2 -17 6
-6 3 8 17 25 30 37 15 13 23 29 20 38 -7 16 -19 19 -30 8z"/>
<path d="M17760 15611 c0 -5 5 -13 10 -16 6 -3 10 -2 10 4 0 5 -4 13 -10 16
-5 3 -10 2 -10 -4z"/>
<path d="M17722 15591 c2 -14 9 -26 16 -29 17 -5 15 10 -3 34 -15 18 -15 18
-13 -5z"/>
<path d="M17860 15595 c0 -8 2 -15 4 -15 2 0 6 7 10 15 3 8 1 15 -4 15 -6 0
-10 -7 -10 -15z"/>
<path d="M17760 15555 c0 -8 5 -15 10 -15 6 0 10 7 10 15 0 8 -4 15 -10 15 -5
0 -10 -7 -10 -15z"/>
<path d="M17826 15395 c4 -8 8 -15 10 -15 2 0 4 7 4 15 0 8 -4 15 -10 15 -5 0
-7 -7 -4 -15z"/>
<path d="M17673 15354 c-8 -21 15 -61 38 -67 30 -8 23 22 -7 33 -19 8 -25 16
-21 30 6 24 -1 27 -10 4z"/>
<path d="M17840 15354 c0 -8 5 -12 10 -9 6 4 8 11 5 16 -9 14 -15 11 -15 -7z"/>
<path d="M17831 15174 c0 -11 3 -14 6 -6 3 7 2 16 -1 19 -3 4 -6 -2 -5 -13z"/>
<path d="M17890 15150 c0 -5 5 -10 10 -10 6 0 10 5 10 10 0 6 -4 10 -10 10 -5
0 -10 -4 -10 -10z"/>
<path d="M17780 15117 c0 -14 5 -29 10 -32 7 -4 8 3 4 22 -9 38 -14 42 -14 10z"/>
<path d="M17867 15086 c-7 -42 -3 -56 13 -40 5 5 5 25 1 44 l-7 35 -7 -39z"/>
<path d="M17905 15060 c3 -5 8 -10 11 -10 2 0 4 5 4 10 0 6 -5 10 -11 10 -5 0
-7 -4 -4 -10z"/>
<path d="M17720 15048 c0 -9 5 -20 10 -23 13 -8 13 5 0 25 -8 13 -10 13 -10
-2z"/>
<path d="M18055 15000 c3 -5 8 -10 11 -10 2 0 4 5 4 10 0 6 -5 10 -11 10 -5 0
-7 -4 -4 -10z"/>
<path d="M17940 14985 c0 -8 7 -15 16 -15 11 0 15 -6 11 -20 -3 -11 -1 -20 4
-20 17 0 9 45 -11 58 -17 10 -20 10 -20 -3z"/>
<path d="M17910 14976 c0 -11 30 -39 36 -34 2 3 -5 13 -16 23 -11 10 -20 15
-20 11z"/>
<path d="M17912 14855 c0 -16 2 -22 5 -12 2 9 2 23 0 30 -3 6 -5 -1 -5 -18z"/>
<path d="M17998 14773 c7 -3 16 -2 19 1 4 3 -2 6 -13 5 -11 0 -14 -3 -6 -6z"/>
<path d="M20636 15213 c-6 -14 -5 -15 5 -6 7 7 10 15 7 18 -3 3 -9 -2 -12 -12z"/>
<path d="M16080 11980 c0 -5 5 -10 10 -10 6 0 10 5 10 10 0 6 -4 10 -10 10 -5
0 -10 -4 -10 -10z"/>
</g>
</svg>
