<svg width="1024" height="1024" viewBox="0 0 1024 1024" fill="none" xmlns="http://www.w3.org/2000/svg">
  <defs>
    <radialGradient id="bg" cx="0" cy="0" r="1" gradientUnits="userSpaceOnUse" gradientTransform="translate(720 140) rotate(120) scale(900)">
      <stop offset="0" stop-color="#ff3b30" stop-opacity="0.45"/>
      <stop offset="0.55" stop-color="#1a0c0c"/>
      <stop offset="1" stop-color="#050607"/>
    </radialGradient>
    <linearGradient id="band" x1="320" y1="200" x2="690" y2="760" gradientUnits="userSpaceOnUse">
      <stop offset="0" stop-color="#ff4d4d"/>
      <stop offset="1" stop-color="#9b1010"/>
    </linearGradient>
    <linearGradient id="cup" x1="0" y1="0" x2="1" y2="1">
      <stop offset="0" stop-color="#1a1a1a"/>
      <stop offset="1" stop-color="#0b0b0b"/>
    </linearGradient>
  </defs>
  <rect width="1024" height="1024" fill="url(#bg)"/>
  <g opacity="0.35">
    <path d="M80 280L920 560" stroke="#ff3b30" stroke-width="6"/>
    <path d="M60 720L940 380" stroke="#ff3b30" stroke-width="6"/>
    <path d="M120 140L860 860" stroke="#ff3b30" stroke-width="4"/>
  </g>
  <path d="M320 270C360 150 460 90 560 110C670 132 750 230 770 360" stroke="url(#band)" stroke-width="110" stroke-linecap="round"/>
  <rect x="220" y="410" width="220" height="300" rx="70" fill="url(#cup)" stroke="#2b2b2b" stroke-width="6"/>
  <rect x="584" y="390" width="220" height="320" rx="70" fill="url(#cup)" stroke="#2b2b2b" stroke-width="6"/>
  <rect x="250" y="450" width="160" height="220" rx="60" fill="#111" stroke="#3a3a3a" stroke-width="4"/>
  <rect x="614" y="430" width="160" height="240" rx="60" fill="#111" stroke="#3a3a3a" stroke-width="4"/>
  <path d="M300 690C350 760 450 820 540 810" stroke="#ff3b30" stroke-width="14" stroke-linecap="round"/>
  <path d="M660 710C630 770 590 820 540 810" stroke="#ff3b30" stroke-width="14" stroke-linecap="round"/>
  <rect x="645" y="485" width="70" height="70" rx="18" fill="#111" stroke="#ff3b30" stroke-width="4"/>
  <path d="M667 520H692" stroke="#ff3b30" stroke-width="6" stroke-linecap="round"/>
  <path d="M679 508V532" stroke="#ff3b30" stroke-width="6" stroke-linecap="round"/>
</svg>
